<svg width="269" height="215" viewBox="0 0 269 215" fill="none" xmlns="http://www.w3.org/2000/svg">
<path d="M180.185 126.082C175.183 134.688 166.157 140.826 154.227 142.504C142.298 144.182 129.784 141.064 119.145 134.663C108.507 128.254 99.7943 118.603 95.4914 107.151C91.1802 95.7061 92.1181 84.6978 97.1122 76.0836C102.106 67.4859 111.132 61.3482 123.062 59.6698C134.992 57.9914 147.497 61.1096 158.144 67.5106C168.782 73.9198 177.495 83.5788 181.806 95.0233C186.109 106.476 185.171 117.476 180.185 126.082Z" fill="url(#paint0_linear_30_5568)"/>
<mask id="mask0_30_5568" style="mask-type:luminance" maskUnits="userSpaceOnUse" x="96" y="59" width="89" height="70">
<path d="M96.4869 76.9885L97.8198 74.9152C102.937 66.9263 111.675 61.2658 123.053 59.6615C134.983 57.9831 147.497 61.1013 158.135 67.5023C168.774 73.9115 177.487 83.5705 181.798 95.015C186.101 106.468 185.163 117.468 180.177 126.074L178.844 128.147C183.838 119.541 184.768 108.533 180.465 97.0883C176.154 85.6439 167.441 75.9848 156.803 69.5756C146.156 63.1746 133.642 60.0564 121.721 61.7348C110.342 63.3309 101.596 68.9997 96.4869 76.9885Z" fill="white"/>
</mask>
<g mask="url(#mask0_30_5568)">
<path d="M180.186 126.082L178.853 128.156C183.847 119.55 184.776 108.541 180.474 97.0968C176.162 85.6524 167.449 75.9933 156.811 69.5841C146.165 63.1831 133.651 60.0649 121.729 61.7433C110.351 63.3395 101.605 69.0082 96.4956 76.9971L97.8285 74.9238C102.946 66.9349 111.684 61.2744 123.062 59.67C134.992 57.9916 147.506 61.1098 158.144 67.5108C168.782 73.92 177.495 83.5791 181.806 95.0235C186.109 106.476 185.171 117.476 180.186 126.082Z" fill="url(#paint1_linear_30_5568)"/>
</g>
<mask id="mask1_30_5568" style="mask-type:luminance" maskUnits="userSpaceOnUse" x="178" y="126" width="3" height="4">
<path d="M179.478 127.234L178.145 129.307C178.392 128.929 178.622 128.542 178.852 128.155L180.185 126.082C179.955 126.468 179.725 126.855 179.478 127.234Z" fill="white"/>
</mask>
<g mask="url(#mask1_30_5568)">
<path d="M179.478 127.234L178.145 129.307C178.392 128.929 178.622 128.542 178.852 128.155L180.185 126.082C179.955 126.468 179.725 126.855 179.478 127.234Z" fill="url(#paint2_linear_30_5568)"/>
</g>
<path d="M186.389 131.693L180.177 141.327C174.204 150.649 163.952 157.297 150.657 159.164C136.719 161.123 122.033 157.47 109.626 149.991C97.2028 142.52 86.9761 131.175 81.9491 117.813C76.9221 104.443 78.0163 91.5181 83.8496 81.4723C84.1211 81.0116 89.2715 72.998 89.5595 72.5455L90.8923 70.4722C90.6044 70.9247 90.3246 71.3772 90.0614 71.8379C84.2281 81.8837 83.1338 94.8091 88.1608 108.179C93.1878 121.54 103.415 132.886 115.838 140.356C128.245 147.827 142.931 151.488 156.869 149.53C170.164 147.671 180.416 141.023 186.389 131.693Z" fill="url(#paint3_linear_30_5568)"/>
<path d="M189.129 93.9949C184.093 80.6253 173.875 69.2878 161.451 61.809C149.028 54.3302 134.35 50.6855 120.413 52.6436C106.492 54.6017 95.8865 61.8008 90.0614 71.8465C84.2281 81.8841 83.1257 94.8177 88.1609 108.187C93.1879 121.549 103.415 132.894 115.838 140.365C128.245 147.836 142.931 151.489 156.869 149.53C170.806 147.581 181.403 140.373 187.228 130.328C193.07 120.29 194.156 107.356 189.129 93.9949ZM180.185 126.082C175.183 134.688 166.157 140.826 154.228 142.504C142.298 144.183 129.784 141.064 119.146 134.663C108.507 128.254 99.7945 118.603 95.4916 107.151C91.1804 95.7063 92.1183 84.6979 97.1124 76.0837C102.106 67.486 111.132 61.3483 123.062 59.6699C134.992 57.9915 147.497 61.1097 158.144 67.5107C168.782 73.9199 177.495 83.5789 181.806 95.0234C186.109 106.476 185.171 117.476 180.185 126.082Z" fill="url(#paint4_linear_30_5568)"/>
<path d="M180.185 126.082C175.183 134.688 166.157 140.826 154.227 142.504C142.298 144.182 129.784 141.064 119.145 134.663C108.507 128.254 99.7943 118.603 95.4914 107.151C91.1802 95.7061 92.1181 84.6978 97.1122 76.0836C102.106 67.4859 111.132 61.3482 123.062 59.6698C134.992 57.9914 147.497 61.1096 158.144 67.5106C168.782 73.9198 177.495 83.5788 181.806 95.0233C186.109 106.476 185.171 117.476 180.185 126.082Z" stroke="url(#paint5_linear_30_5568)" stroke-miterlimit="10"/>
<path d="M127.735 79.5638L126.402 81.6371L123.86 74.8659L125.184 72.7926L127.735 79.5638Z" fill="url(#paint6_linear_30_5568)"/>
<mask id="mask2_30_5568" style="mask-type:luminance" maskUnits="userSpaceOnUse" x="135" y="86" width="13" height="5">
<path d="M147.991 88.4L146.658 90.4733C142.824 89.1734 139.179 88.5645 135.732 88.6633L137.065 86.5899C140.512 86.4912 144.157 87.1 147.991 88.4Z" fill="white"/>
</mask>
<g mask="url(#mask2_30_5568)">
<mask id="mask3_30_5568" style="mask-type:luminance" maskUnits="userSpaceOnUse" x="135" y="86" width="13" height="5">
<path d="M147.991 86.5819H135.741V90.4735H147.991V86.5819Z" fill="white"/>
</mask>
<g mask="url(#mask3_30_5568)">
<path d="M147.991 88.4L146.658 90.4733C142.824 89.1734 139.179 88.5645 135.732 88.6633L137.065 86.5899C140.512 86.4912 144.157 87.1 147.991 88.4Z" fill="url(#paint7_linear_30_5568)"/>
</g>
</g>
<mask id="mask4_30_5568" style="mask-type:luminance" maskUnits="userSpaceOnUse" x="126" y="87" width="5" height="5">
<path d="M126.69 91.7488L128.023 89.6754C128.533 88.8856 129.454 88.2192 130.787 87.6761L129.454 89.7495C128.122 90.2925 127.2 90.9589 126.69 91.7488Z" fill="white"/>
</mask>
<g mask="url(#mask4_30_5568)">
<path d="M130.787 87.6678L129.454 89.7412C128.122 90.2842 127.2 90.9506 126.69 91.7405L128.023 89.6671C128.533 88.8773 129.454 88.2109 130.787 87.6678Z" fill="url(#paint8_linear_30_5568)"/>
</g>
<path d="M134.046 96.3395L132.721 98.4128L129.455 89.7493L130.787 87.6677L134.046 96.3395Z" fill="url(#paint9_linear_30_5568)"/>
<path d="M150.352 112.276L149.02 114.349C149.513 113.518 149.563 112.58 149.184 111.568C148.797 110.548 148.09 109.775 147.061 109.232C146.033 108.697 144.684 108.286 143.022 108.006L144.355 105.933C146.025 106.221 147.374 106.624 148.394 107.159C149.423 107.702 150.13 108.483 150.517 109.495C150.895 110.507 150.846 111.437 150.352 112.276Z" fill="url(#paint10_linear_30_5568)"/>
<mask id="mask5_30_5568" style="mask-type:luminance" maskUnits="userSpaceOnUse" x="143" y="105" width="8" height="10">
<path d="M150.352 112.276L149.02 114.349C149.513 113.518 149.563 112.58 149.184 111.568C148.797 110.548 148.09 109.775 147.061 109.232C146.033 108.697 144.684 108.286 143.022 108.006L144.355 105.933C146.025 106.221 147.374 106.624 148.394 107.159C149.423 107.702 150.13 108.483 150.517 109.495C150.895 110.507 150.846 111.437 150.352 112.276Z" fill="white"/>
</mask>
<g mask="url(#mask5_30_5568)">
<mask id="mask6_30_5568" style="mask-type:luminance" maskUnits="userSpaceOnUse" x="143" y="105" width="8" height="10">
<path d="M150.764 105.933H143.013V114.358H150.764V105.933Z" fill="white"/>
</mask>
<g mask="url(#mask6_30_5568)">
<path d="M150.352 112.276L149.02 114.35C149.513 113.519 149.563 112.581 149.184 111.569C148.797 110.548 148.09 109.775 147.061 109.232C146.033 108.697 144.684 108.286 143.022 108.006L144.355 105.933C146.025 106.221 147.374 106.624 148.394 107.159C149.423 107.702 150.13 108.483 150.517 109.495C150.895 110.507 150.846 111.437 150.352 112.276Z" fill="url(#paint11_linear_30_5568)"/>
</g>
</g>
<mask id="mask7_30_5568" style="mask-type:luminance" maskUnits="userSpaceOnUse" x="148" y="112" width="3" height="3">
<path d="M150.27 112.408L148.946 114.481L149.02 114.358L150.352 112.276L150.27 112.408Z" fill="white"/>
</mask>
<g mask="url(#mask7_30_5568)">
<path d="M150.27 112.408L148.946 114.481L149.02 114.358L150.352 112.276L150.27 112.408Z" fill="url(#paint12_linear_30_5568)"/>
</g>
<mask id="mask8_30_5568" style="mask-type:luminance" maskUnits="userSpaceOnUse" x="115" y="85" width="23" height="23">
<path d="M117.146 87.3469L118.479 85.2736C118.422 85.3641 118.364 85.4546 118.315 85.5451C116.661 88.326 116.472 91.403 117.739 94.7763C118.767 97.4996 120.281 99.5894 122.305 101.037C124.321 102.485 126.534 103.497 128.928 104.057C131.322 104.616 134.153 105.036 137.427 105.299L136.094 107.373C132.82 107.109 129.998 106.69 127.595 106.13C125.201 105.571 122.988 104.559 120.972 103.111C118.956 101.654 117.434 99.5729 116.406 96.8496C115.139 93.4764 115.328 90.3993 116.982 87.6184C117.039 87.5279 117.089 87.4374 117.146 87.3469Z" fill="white"/>
</mask>
<g mask="url(#mask8_30_5568)">
<mask id="mask9_30_5568" style="mask-type:luminance" maskUnits="userSpaceOnUse" x="115" y="85" width="23" height="23">
<path d="M137.42 85.2736H115.576V107.373H137.42V85.2736Z" fill="white"/>
</mask>
<g mask="url(#mask9_30_5568)">
<path d="M137.419 105.299L136.086 107.373C132.812 107.109 129.99 106.69 127.587 106.13C125.193 105.571 122.98 104.559 120.964 103.111C118.948 101.654 117.426 99.5729 116.398 96.8496C115.131 93.4764 115.32 90.3993 116.974 87.6184C117.031 87.5279 117.081 87.4374 117.138 87.3469L118.471 85.2736C118.414 85.3641 118.356 85.4546 118.307 85.5451C116.653 88.326 116.464 91.403 117.731 94.7763C118.759 97.4996 120.273 99.5894 122.297 101.037C124.313 102.485 126.526 103.497 128.92 104.057C131.314 104.616 134.144 105.036 137.419 105.299Z" fill="url(#paint13_linear_30_5568)"/>
</g>
</g>
<path d="M141.253 115.485L139.92 117.566L136.086 107.373L137.419 105.299L141.253 115.485Z" fill="url(#paint14_linear_30_5568)"/>
<mask id="mask10_30_5568" style="mask-type:luminance" maskUnits="userSpaceOnUse" x="149" y="116" width="11" height="9">
<path d="M159.748 116.653L158.415 118.727C156.737 121.351 153.668 123.268 149.217 124.478L150.55 122.404C155.009 121.195 158.07 119.278 159.748 116.653Z" fill="white"/>
</mask>
<g mask="url(#mask10_30_5568)">
<path d="M159.748 116.653L158.415 118.727C156.737 121.351 153.668 123.268 149.217 124.478L150.55 122.404C155.009 121.195 158.07 119.278 159.748 116.653Z" fill="url(#paint15_linear_30_5568)"/>
</g>
<path d="M146.757 130.122L145.432 132.203L142.931 125.556L144.256 123.474L146.757 130.122Z" fill="url(#paint16_linear_30_5568)"/>
<path d="M153.117 129.233L151.784 131.306L145.432 132.203L146.757 130.122L153.117 129.233Z" fill="url(#paint17_linear_30_5568)"/>
<mask id="mask11_30_5568" style="mask-type:luminance" maskUnits="userSpaceOnUse" x="125" y="120" width="20" height="6">
<path d="M144.256 123.474L142.923 125.547C139.722 125.827 136.538 125.72 133.362 125.218C130.195 124.724 127.488 123.943 125.258 122.89L126.591 120.816C128.821 121.878 131.52 122.651 134.695 123.145C137.871 123.647 141.055 123.745 144.256 123.474Z" fill="white"/>
</mask>
<g mask="url(#mask11_30_5568)">
<mask id="mask12_30_5568" style="mask-type:luminance" maskUnits="userSpaceOnUse" x="125" y="120" width="20" height="6">
<path d="M144.256 120.816H125.267V125.703H144.256V120.816Z" fill="white"/>
</mask>
<g mask="url(#mask12_30_5568)">
<path d="M144.256 123.474L142.923 125.547C139.722 125.827 136.538 125.72 133.362 125.218C130.195 124.724 127.488 123.943 125.258 122.89L126.591 120.816C128.821 121.878 131.52 122.651 134.695 123.145C137.871 123.647 141.055 123.745 144.256 123.474Z" fill="url(#paint18_linear_30_5568)"/>
</g>
</g>
<path d="M155.922 101.128C157.938 102.576 159.452 104.649 160.464 107.331C161.714 110.663 161.525 113.699 159.88 116.439C158.234 119.179 155.124 121.162 150.542 122.404L153.109 129.233L146.757 130.13L144.256 123.482C141.055 123.762 137.871 123.655 134.695 123.153C131.528 122.659 128.821 121.878 126.591 120.824L127.282 112.893C129.323 113.806 131.569 114.497 134.021 114.966C136.473 115.435 138.883 115.616 141.244 115.493L137.41 105.307C134.136 105.044 131.314 104.625 128.911 104.065C126.517 103.506 124.304 102.494 122.288 101.046C120.273 99.5893 118.751 97.5077 117.722 94.7844C116.455 91.4112 116.644 88.3341 118.298 85.5532C119.952 82.7723 123.095 80.7813 127.727 79.5718L125.176 72.8006L131.528 71.9038L134.029 78.5516C139.393 78.2307 144.165 78.8643 148.337 80.4604L147.983 88.4081C144.149 87.1082 140.504 86.4994 137.057 86.5981L140.957 96.973C144.165 97.2115 146.963 97.59 149.324 98.1413C151.693 98.6843 153.89 99.688 155.906 101.136L155.922 101.128ZM134.045 96.3394L130.787 87.6759C129.315 88.2683 128.352 89.017 127.883 89.9138C127.422 90.8188 127.381 91.7979 127.784 92.851C128.171 93.8712 128.887 94.6446 129.94 95.1794C130.993 95.7141 132.359 96.1091 134.054 96.3394M150.352 112.276C150.846 111.445 150.895 110.507 150.517 109.495C150.13 108.475 149.423 107.702 148.394 107.159C147.366 106.624 146.016 106.212 144.354 105.933L147.522 114.349C148.929 113.815 149.875 113.124 150.361 112.276" fill="url(#paint19_linear_30_5568)"/>
<path d="M126.599 120.816L125.267 122.898L125.958 114.967L127.291 112.893L126.599 120.816Z" fill="url(#paint20_linear_30_5568)"/>
<path d="M134.045 96.3394L130.787 87.6759C129.315 88.2683 128.352 89.017 127.883 89.9138C127.422 90.8188 127.381 91.7979 127.784 92.851C128.171 93.8712 128.887 94.6446 129.94 95.1794C130.993 95.7141 132.359 96.1091 134.054 96.3394M150.352 112.276C150.846 111.445 150.895 110.507 150.517 109.495C150.13 108.475 149.423 107.702 148.394 107.159C147.366 106.624 146.016 106.212 144.354 105.933L147.522 114.349C148.929 113.815 149.875 113.124 150.361 112.276M155.922 101.128C157.938 102.576 159.452 104.649 160.464 107.331C161.714 110.663 161.525 113.699 159.88 116.439C158.234 119.179 155.124 121.162 150.542 122.404L153.109 129.233L146.757 130.13L144.256 123.482C141.055 123.762 137.871 123.655 134.695 123.153C131.528 122.659 128.821 121.878 126.591 120.824L127.282 112.893C129.323 113.806 131.569 114.497 134.021 114.966C136.473 115.435 138.883 115.616 141.244 115.493L137.41 105.307C134.136 105.044 131.314 104.625 128.911 104.065C126.517 103.506 124.304 102.494 122.288 101.046C120.273 99.5893 118.751 97.5077 117.722 94.7844C116.455 91.4112 116.644 88.3341 118.298 85.5532C119.952 82.7723 123.095 80.7813 127.727 79.5718L125.176 72.8006L131.528 71.9038L134.029 78.5516C139.393 78.2307 144.165 78.8643 148.337 80.4604L147.983 88.4081C144.149 87.1082 140.504 86.4994 137.057 86.5981L140.957 96.973C144.165 97.2115 146.963 97.59 149.324 98.1413C151.693 98.6843 153.89 99.688 155.906 101.136L155.922 101.128Z" stroke="url(#paint21_linear_30_5568)" stroke-width="0.5" stroke-miterlimit="10"/>
<path style="mix-blend-mode:overlay" d="M149.464 56.8121C149.732 50.8429 145.309 45.7956 139.585 45.5386C133.861 45.2817 129.003 49.9124 128.735 55.8817C128.467 61.8509 132.891 66.8982 138.615 67.1551C144.339 67.4121 149.196 62.7813 149.464 56.8121Z" fill="url(#paint22_radial_30_5568)"/>
<path style="mix-blend-mode:overlay" d="M138.348 77.2108C136.135 77.1367 134.679 67.7245 135.09 56.1978C135.502 44.6793 137.624 35.3987 139.837 35.4727C142.051 35.5468 143.507 44.959 143.095 56.4857C142.684 68.0124 140.553 77.293 138.34 77.219L138.348 77.2108Z" fill="url(#paint23_radial_30_5568)"/>
<path style="mix-blend-mode:overlay" d="M159.896 57.0698C159.814 59.2912 150.435 60.764 138.949 60.3608C127.464 59.9577 118.208 57.835 118.29 55.6135C118.372 53.3921 127.752 51.9194 139.237 52.3226C150.723 52.7257 159.979 54.8484 159.896 57.0698Z" fill="url(#paint24_radial_30_5568)"/>
<path style="mix-blend-mode:hard-light" d="M158.901 57.037C158.86 58.2053 149.958 58.8388 139.015 58.4521C128.072 58.0654 119.244 56.8148 119.286 55.6465C119.327 54.4782 128.229 53.8447 139.171 54.2314C150.114 54.6181 158.942 55.8687 158.901 57.037Z" fill="url(#paint25_radial_30_5568)"/>
<path style="mix-blend-mode:hard-light" d="M148.904 56.6915C148.732 61.5868 144.19 65.4044 138.776 65.2152C133.354 65.0259 129.101 60.904 129.282 56.0004C129.455 51.105 133.996 47.2875 139.41 47.4767C144.832 47.6659 149.085 51.7879 148.904 56.6915Z" fill="url(#paint26_radial_30_5568)"/>
<path style="mix-blend-mode:hard-light" d="M138.381 76.2151C137.221 76.1739 136.596 67.2471 136.991 56.2717C137.386 45.2962 138.645 36.4352 139.805 36.4763C140.965 36.5175 141.59 45.4443 141.195 56.4198C140.8 67.3952 139.542 76.2562 138.381 76.2151Z" fill="url(#paint27_radial_30_5568)"/>
<path style="mix-blend-mode:overlay" d="M96.1743 103.925C96.0673 106.986 93.5991 109.38 90.6619 109.281C87.7247 109.183 85.4374 106.616 85.5444 103.555C85.6513 100.494 88.1196 98.1003 91.0568 98.199C93.994 98.2977 96.2812 100.865 96.1743 103.925Z" fill="url(#paint28_radial_30_5568)"/>
<path style="mix-blend-mode:overlay" d="M90.481 114.44C89.3456 114.399 88.5969 109.578 88.8108 103.67C89.0247 97.7629 90.1107 93.0074 91.2461 93.0403C92.3815 93.0815 93.1302 97.9028 92.9163 103.81C92.7024 109.717 91.6163 114.473 90.481 114.44Z" fill="url(#paint29_radial_30_5568)"/>
<path style="mix-blend-mode:overlay" d="M101.522 104.115C101.481 105.25 96.6764 106.007 90.7856 105.801C84.8947 105.596 80.1557 104.509 80.1968 103.366C80.2379 102.23 85.0428 101.474 90.9337 101.679C96.8245 101.885 101.564 102.971 101.522 104.115Z" fill="url(#paint30_radial_30_5568)"/>
<path style="mix-blend-mode:hard-light" d="M101.012 104.098C100.987 104.699 96.4292 105.019 90.8181 104.822C85.207 104.625 80.6818 103.983 80.7065 103.382C80.7312 102.782 85.2892 102.461 90.9004 102.658C96.5115 102.856 101.037 103.497 101.012 104.098Z" fill="url(#paint31_radial_30_5568)"/>
<path style="mix-blend-mode:hard-light" d="M95.8948 103.917C95.8043 106.427 93.4759 108.385 90.7032 108.286C87.9223 108.187 85.7421 106.073 85.8326 103.563C85.9231 101.054 88.2514 99.0959 91.0241 99.1946C93.805 99.2933 95.9853 101.408 95.8948 103.917Z" fill="url(#paint32_radial_30_5568)"/>
<path style="mix-blend-mode:hard-light" d="M90.4974 113.93C89.9051 113.905 89.5842 109.331 89.7816 103.703C89.9791 98.0757 90.6291 93.5341 91.2214 93.5588C91.8138 93.5835 92.1347 98.158 91.9372 103.786C91.7398 109.413 91.0898 113.955 90.4974 113.93Z" fill="url(#paint33_radial_30_5568)"/>
<path style="mix-blend-mode:overlay" d="M129.167 89.8975C129.06 92.9581 126.592 95.3523 123.654 95.2536C120.717 95.1549 118.43 92.5879 118.537 89.5273C118.644 86.4666 121.112 84.0724 124.049 84.1712C126.986 84.2699 129.274 86.8369 129.167 89.8975Z" fill="url(#paint34_radial_30_5568)"/>
<path style="mix-blend-mode:overlay" d="M123.473 100.404C122.338 100.363 121.589 95.5414 121.803 89.6341C122.017 83.7268 123.103 78.9713 124.239 79.0042C125.374 79.0453 126.123 83.8666 125.909 89.774C125.695 95.6813 124.609 100.437 123.473 100.404Z" fill="url(#paint35_radial_30_5568)"/>
<path style="mix-blend-mode:overlay" d="M134.523 90.0868C134.482 91.2222 129.677 91.9792 123.786 91.7735C117.895 91.5678 113.156 90.4818 113.197 89.3381C113.238 88.2028 118.043 87.4458 123.934 87.6515C129.825 87.8572 134.564 88.9432 134.523 90.0868Z" fill="url(#paint36_radial_30_5568)"/>
<path style="mix-blend-mode:hard-light" d="M134.013 90.0623C133.988 90.6629 129.43 90.9838 123.819 90.7863C118.208 90.5889 113.683 89.9471 113.707 89.3465C113.732 88.7459 118.29 88.4251 123.901 88.6225C129.512 88.82 134.037 89.4617 134.013 90.0623Z" fill="url(#paint37_radial_30_5568)"/>
<path style="mix-blend-mode:hard-light" d="M128.887 89.8892C128.796 92.3986 126.468 94.3568 123.695 94.258C120.915 94.1593 118.734 92.0448 118.825 89.5355C118.915 87.0261 121.244 85.0679 124.016 85.1667C126.797 85.2654 128.977 87.3799 128.887 89.8892Z" fill="url(#paint38_radial_30_5568)"/>
<path style="mix-blend-mode:hard-light" d="M123.49 99.8939C122.897 99.8693 122.577 95.2948 122.774 89.6672C122.972 84.0396 123.622 79.498 124.214 79.5227C124.806 79.5474 125.127 84.1218 124.93 89.7494C124.732 95.377 124.082 99.9186 123.49 99.8939Z" fill="url(#paint39_radial_30_5568)"/>
<path d="M221.738 54.7222C213.054 39.7123 200.565 27.1198 185.622 18.3136C170.232 9.24047 152.6 4.44648 134.633 4.44648V4.2738C152.629 4.2738 170.291 9.07721 185.709 18.166C200.675 26.988 213.186 39.5993 221.886 54.6374L221.735 54.7253L221.738 54.7222Z" fill="url(#paint40_linear_30_5568)"/>
<path d="M46.725 154.762C46.6308 154.596 46.6873 154.385 46.8537 154.291C47.0201 154.197 47.2305 154.257 47.3247 154.423C47.4188 154.586 47.3592 154.8 47.1959 154.894C47.1426 154.922 47.0829 154.938 47.0264 154.938C46.904 154.938 46.7878 154.875 46.725 154.762ZM45.7172 152.944C45.6262 152.775 45.689 152.565 45.8554 152.477C46.0249 152.386 46.2353 152.448 46.3263 152.615C46.4173 152.784 46.3546 152.991 46.185 153.083C46.1348 153.111 46.0783 153.123 46.0218 153.123C45.8993 153.123 45.78 153.057 45.7172 152.944ZM44.7471 151.105C44.6592 150.935 44.7283 150.725 44.8978 150.637C45.0674 150.549 45.2746 150.618 45.3625 150.788C45.4472 150.957 45.3813 151.164 45.2118 151.252C45.1616 151.277 45.1082 151.29 45.0548 151.29C44.9292 151.29 44.8099 151.221 44.7471 151.105ZM43.8147 149.243C43.7299 149.073 43.8022 148.866 43.9717 148.781C44.1444 148.697 44.3516 148.769 44.4332 148.942C44.518 149.111 44.4458 149.318 44.2762 149.403C44.226 149.428 44.1758 149.438 44.1255 149.438C43.9968 149.438 43.8712 149.365 43.8116 149.243H43.8147ZM42.9231 147.366C42.8415 147.193 42.92 146.986 43.0926 146.907C43.2653 146.826 43.4694 146.901 43.551 147.074C43.6295 147.246 43.551 147.453 43.3815 147.532C43.3344 147.554 43.2841 147.566 43.2371 147.566C43.1052 147.566 42.9828 147.491 42.9231 147.366ZM42.0692 145.469C41.9938 145.293 42.0692 145.089 42.2481 145.014C42.4208 144.936 42.6249 145.014 42.7033 145.19C42.7787 145.366 42.7002 145.57 42.5244 145.645C42.4804 145.667 42.4333 145.677 42.3862 145.677C42.2544 145.677 42.1257 145.598 42.0692 145.469ZM41.256 143.554C41.1838 143.378 41.2655 143.177 41.4413 143.102C41.6202 143.03 41.8211 143.115 41.8934 143.291C41.9656 143.466 41.8808 143.667 41.705 143.743C41.6642 143.758 41.6171 143.768 41.5731 143.768C41.4381 143.768 41.3094 143.686 41.256 143.554ZM40.4806 141.623C40.4115 141.448 40.4994 141.247 40.6784 141.178C40.8542 141.109 41.0551 141.196 41.1242 141.372C41.1932 141.551 41.1053 141.752 40.9295 141.821C40.8856 141.837 40.8448 141.843 40.804 141.843C40.6658 141.843 40.534 141.762 40.4806 141.623ZM39.7459 139.677C39.68 139.498 39.7711 139.3 39.9531 139.234C40.1321 139.168 40.3299 139.263 40.3958 139.438C40.4617 139.617 40.3676 139.818 40.1886 139.884C40.1509 139.897 40.1101 139.903 40.0725 139.903C39.9312 139.903 39.7962 139.818 39.7459 139.677ZM39.0521 137.715C38.9893 137.536 39.0867 137.338 39.2687 137.278C39.4477 137.216 39.6455 137.313 39.7051 137.492C39.7679 137.674 39.6706 137.869 39.4916 137.931C39.454 137.944 39.4163 137.95 39.3786 137.95C39.2373 137.95 39.1024 137.859 39.0521 137.715ZM38.3991 135.74C38.3426 135.558 38.4399 135.366 38.622 135.307C38.8041 135.25 38.9987 135.348 39.0584 135.53C39.1149 135.712 39.0144 135.906 38.8355 135.966C38.7978 135.976 38.7633 135.982 38.7288 135.982C38.5812 135.982 38.4462 135.888 38.3991 135.74ZM37.7869 133.753C37.7335 133.568 37.8371 133.376 38.0192 133.323C38.2045 133.269 38.396 133.373 38.4493 133.555C38.5027 133.737 38.3991 133.932 38.217 133.985C38.1856 133.994 38.1511 134.001 38.1197 134.001C37.969 134.001 37.8309 133.903 37.7869 133.753ZM37.2187 131.753C37.1653 131.568 37.2752 131.376 37.4604 131.326C37.6425 131.276 37.834 131.386 37.8842 131.568C37.9345 131.753 37.8246 131.941 37.6425 131.995C37.6111 132.001 37.5797 132.004 37.5514 132.004C37.3976 132.004 37.2595 131.904 37.2187 131.753ZM36.6881 129.737C36.641 129.555 36.754 129.367 36.9392 129.32C37.1245 129.273 37.3128 129.386 37.3568 129.571C37.4039 129.756 37.2909 129.941 37.1056 129.989C37.0805 129.998 37.0523 130.001 37.024 130.001C36.867 130.001 36.7289 129.894 36.6881 129.737ZM36.2015 127.716C36.1575 127.53 36.2737 127.345 36.462 127.301C36.6473 127.26 36.8325 127.376 36.8733 127.562C36.9173 127.747 36.8011 127.932 36.6159 127.976C36.5876 127.982 36.5625 127.986 36.5374 127.986C36.3804 127.986 36.2391 127.876 36.2015 127.716ZM35.7557 125.684C35.718 125.496 35.8373 125.314 36.0257 125.276C36.2109 125.235 36.393 125.355 36.4306 125.543C36.4715 125.728 36.3522 125.91 36.1638 125.951C36.1418 125.951 36.1167 125.957 36.0947 125.957C35.9346 125.957 35.7902 125.844 35.7557 125.684ZM35.3538 123.64C35.3193 123.452 35.4417 123.273 35.6301 123.239C35.8185 123.204 35.9974 123.327 36.0319 123.515C36.0665 123.703 35.944 123.882 35.7557 123.917C35.7337 123.923 35.7148 123.923 35.6929 123.923C35.5296 123.923 35.3852 123.807 35.3538 123.64ZM34.9928 121.594C34.9614 121.405 35.0901 121.226 35.2785 121.195C35.4637 121.163 35.6426 121.292 35.674 121.481C35.7054 121.669 35.5798 121.845 35.3915 121.876C35.3726 121.876 35.3538 121.882 35.335 121.882C35.1686 121.882 35.021 121.763 34.9928 121.594ZM34.6757 119.537C34.6474 119.346 34.7793 119.17 34.9677 119.145C35.156 119.116 35.3318 119.248 35.3601 119.437C35.3852 119.625 35.2533 119.801 35.065 119.829C35.065 119.829 35.0336 119.829 35.0179 119.829C34.8483 119.829 34.7008 119.704 34.6757 119.534V119.537ZM34.3994 117.471C34.3774 117.283 34.5093 117.11 34.7008 117.088C34.8892 117.063 35.0618 117.198 35.0838 117.387C35.1089 117.578 34.9739 117.748 34.7856 117.773C34.7856 117.773 34.7573 117.776 34.7416 117.776C34.5689 117.776 34.4214 117.647 34.3994 117.471ZM34.1671 115.406C34.1482 115.214 34.2864 115.045 34.4748 115.026C34.6631 115.007 34.8327 115.145 34.8546 115.333C34.8735 115.525 34.7353 115.691 34.547 115.713H34.5093C34.3335 115.713 34.1859 115.581 34.1671 115.406ZM33.9756 113.33C33.9599 113.142 34.1043 112.976 34.2927 112.96C34.481 112.944 34.6474 113.086 34.6631 113.274C34.6788 113.465 34.5375 113.632 34.3492 113.647H34.3209C34.142 113.647 33.9913 113.513 33.9756 113.33ZM33.828 111.255C33.8155 111.064 33.9599 110.9 34.1514 110.891C34.3398 110.878 34.5061 111.023 34.5187 111.211C34.5281 111.403 34.3837 111.566 34.1953 111.579H34.1734C33.9913 111.579 33.8406 111.437 33.828 111.255ZM33.7213 109.177C33.715 108.985 33.8626 108.825 34.0541 108.816C34.2424 108.81 34.4057 108.957 34.412 109.149C34.4182 109.337 34.2707 109.5 34.0823 109.507H34.0698C33.8845 109.507 33.7307 109.362 33.7213 109.177ZM33.6585 107.095C33.6585 106.904 33.806 106.747 33.9975 106.744C34.1891 106.737 34.346 106.888 34.3492 107.08C34.3492 107.271 34.2016 107.428 34.0132 107.431H34.0038C33.8186 107.431 33.6616 107.284 33.6585 107.095ZM33.6396 105.014C33.6396 104.822 33.7935 104.669 33.9819 104.669C34.1734 104.669 34.3303 104.822 34.3303 105.014C34.3303 105.202 34.1734 105.359 33.9819 105.359C33.7935 105.359 33.6396 105.202 33.6396 105.014Z" fill="url(#paint41_linear_30_5568)"/>
<path d="M134.633 205.838C116.622 205.838 98.9434 201.031 83.5128 191.933C68.5344 183.102 56.011 170.481 47.3052 155.43L47.6034 155.258C56.281 170.255 68.7604 182.835 83.6886 191.635C99.0658 200.698 116.681 205.489 134.633 205.489V205.835V205.838Z" fill="url(#paint42_linear_30_5568)"/>
<path d="M134.633 206.45V204.881C152.475 204.881 169.984 200.118 185.267 191.111C200.104 182.364 212.508 169.863 221.132 154.953L222.492 155.738C213.732 170.88 201.134 183.576 186.064 192.461C170.539 201.613 152.754 206.45 134.633 206.45Z" fill="url(#paint43_linear_30_5568)"/>
<path d="M47.5902 54.7603L47.317 54.6033C56.0228 39.5558 68.5431 26.9351 83.5184 18.1068C98.9458 9.01175 116.621 4.2052 134.629 4.2052V4.51915C116.674 4.51915 99.0557 9.31 83.6754 18.3768C68.744 27.1768 56.2645 39.7599 47.5839 54.7603H47.5902Z" fill="url(#paint44_linear_30_5568)"/>
<path d="M134.721 0.312012H134.548V7.28481H134.721V0.312012Z" fill="url(#paint45_linear_30_5568)"/>
<path d="M47.4559 55.5985C47.9622 55.5985 48.3726 55.188 48.3726 54.6817C48.3726 54.1755 47.9622 53.765 47.4559 53.765C46.9496 53.765 46.5392 54.1755 46.5392 54.6817C46.5392 55.188 46.9496 55.5985 47.4559 55.5985Z" fill="url(#paint46_linear_30_5568)"/>
<path d="M222.925 59.0891C221.607 59.0891 220.536 58.0185 220.536 56.6999C220.536 55.3814 221.607 54.3108 222.925 54.3108C224.244 54.3108 225.314 55.3814 225.314 56.6999C225.314 58.0185 224.244 59.0891 222.925 59.0891ZM222.925 54.4866C221.704 54.4866 220.709 55.4818 220.709 56.7031C220.709 57.9243 221.704 58.9196 222.925 58.9196C224.146 58.9196 225.142 57.9243 225.142 56.7031C225.142 55.4818 224.146 54.4866 222.925 54.4866Z" fill="url(#paint47_linear_30_5568)"/>
<path d="M186.927 20.32C187.657 20.32 188.249 19.7282 188.249 18.9982C188.249 18.2683 187.657 17.6765 186.927 17.6765C186.197 17.6765 185.605 18.2683 185.605 18.9982C185.605 19.7282 186.197 20.32 186.927 20.32Z" fill="url(#paint48_linear_30_5568)"/>
<path d="M134.721 205.665H134.548V212.349H134.721V205.665Z" fill="url(#paint49_linear_30_5568)"/>
<path d="M134.633 214.921C133.898 214.921 133.301 214.324 133.301 213.59C133.301 212.855 133.898 212.258 134.633 212.258C135.367 212.258 135.964 212.855 135.964 213.59C135.964 214.324 135.367 214.921 134.633 214.921ZM134.633 212.434C133.995 212.434 133.477 212.952 133.477 213.59C133.477 214.227 133.995 214.745 134.633 214.745C135.27 214.745 135.788 214.227 135.788 213.59C135.788 212.952 135.27 212.434 134.633 212.434Z" fill="url(#paint50_linear_30_5568)"/>
<path d="M222.364 155.889C221.516 155.889 220.828 155.201 220.828 154.353C220.828 153.506 221.516 152.818 222.364 152.818C223.211 152.818 223.899 153.506 223.899 154.353C223.899 155.201 223.211 155.889 222.364 155.889ZM222.364 153C221.616 153 221.01 153.606 221.01 154.353C221.01 155.101 221.616 155.706 222.364 155.706C223.111 155.706 223.717 155.101 223.717 154.353C223.717 153.606 223.111 153 222.364 153Z" fill="url(#paint51_linear_30_5568)"/>
<path d="M47.4559 156.58C48.1373 156.58 48.6897 156.027 48.6897 155.346C48.6897 154.665 48.1373 154.112 47.4559 154.112C46.7744 154.112 46.222 154.665 46.222 155.346C46.222 156.027 46.7744 156.58 47.4559 156.58Z" fill="url(#paint52_linear_30_5568)"/>
<path d="M32.0289 105.014H35.8465L33.9377 100.427L32.0289 105.014Z" fill="url(#paint53_linear_30_5568)"/>
<path d="M54.6263 58.9698L53.8101 58.4989C61.8471 44.6067 73.4036 32.9592 87.2299 24.8091C101.474 16.4141 117.786 11.9749 134.413 11.9749V12.9167C117.956 12.9167 101.806 17.3088 87.7102 25.6191C74.022 33.6875 62.5849 45.2189 54.6295 58.9698H54.6263Z" fill="url(#paint54_linear_30_5568)"/>
<path d="M53.1003 150.058C53.0062 149.889 53.0658 149.678 53.2353 149.587C53.4017 149.493 53.6121 149.556 53.7031 149.722C53.7942 149.889 53.7345 150.099 53.5681 150.19C53.5148 150.221 53.4582 150.234 53.4017 150.234C53.2793 150.234 53.1631 150.171 53.1003 150.058ZM52.1114 148.225C52.0204 148.058 52.0863 147.848 52.2558 147.76C52.4222 147.672 52.6326 147.735 52.7236 147.904C52.8115 148.074 52.7456 148.281 52.576 148.372C52.5258 148.397 52.4693 148.41 52.4159 148.41C52.2935 148.41 52.1711 148.344 52.1114 148.225ZM51.1633 146.375C51.0785 146.203 51.1476 145.996 51.3171 145.911C51.4898 145.826 51.697 145.895 51.7818 146.068C51.8665 146.237 51.7975 146.445 51.6248 146.529C51.5746 146.554 51.5243 146.567 51.4709 146.567C51.3454 146.567 51.2229 146.495 51.1633 146.375ZM50.256 144.501C50.1775 144.329 50.2497 144.124 50.4224 144.043C50.595 143.961 50.8022 144.037 50.8839 144.209C50.9624 144.379 50.8901 144.586 50.7175 144.668C50.6704 144.69 50.6202 144.699 50.5699 144.699C50.4412 144.699 50.3156 144.627 50.256 144.501ZM49.3926 142.608C49.3173 142.432 49.3926 142.231 49.5684 142.153C49.7442 142.074 49.9483 142.153 50.0236 142.329C50.1021 142.501 50.0236 142.709 49.8478 142.784C49.8039 142.806 49.7568 142.815 49.7097 142.815C49.5778 142.815 49.4491 142.737 49.3926 142.608ZM48.5732 140.696C48.501 140.52 48.5826 140.319 48.7584 140.244C48.9342 140.172 49.1383 140.257 49.2105 140.432C49.2827 140.608 49.2011 140.809 49.0253 140.885C48.9813 140.9 48.9374 140.91 48.8934 140.91C48.7584 140.91 48.6297 140.828 48.5732 140.696ZM47.7946 138.765C47.7255 138.59 47.8134 138.389 47.9924 138.32C48.1714 138.251 48.3691 138.338 48.4382 138.517C48.5073 138.693 48.4194 138.894 48.2436 138.963C48.2027 138.979 48.1588 138.988 48.118 138.988C47.9798 138.988 47.848 138.904 47.7946 138.765ZM47.0631 136.819C46.9972 136.64 47.0882 136.442 47.2672 136.376C47.4461 136.31 47.6439 136.405 47.7098 136.583C47.7758 136.762 47.6847 136.96 47.5026 137.026C47.465 137.039 47.4242 137.048 47.3865 137.048C47.2452 137.048 47.1133 136.96 47.0631 136.819ZM46.3724 134.857C46.3096 134.675 46.407 134.48 46.5891 134.42C46.768 134.358 46.9658 134.455 47.0254 134.634C47.0882 134.816 46.9909 135.011 46.8088 135.073C46.7743 135.086 46.7366 135.092 46.6989 135.092C46.5545 135.092 46.4195 135.001 46.3724 134.857ZM45.7257 132.879C45.6692 132.697 45.7696 132.502 45.9517 132.446C46.1338 132.389 46.3285 132.49 46.385 132.672C46.4415 132.854 46.341 133.048 46.1589 133.105C46.1244 133.114 46.0899 133.121 46.0553 133.121C45.9078 133.121 45.7728 133.026 45.7257 132.879ZM45.1261 130.885C45.0727 130.703 45.1794 130.512 45.3615 130.458C45.5436 130.405 45.7351 130.512 45.7885 130.694C45.8419 130.876 45.7383 131.067 45.553 131.121C45.5216 131.13 45.4902 131.136 45.4588 131.136C45.3081 131.136 45.17 131.036 45.1261 130.885ZM44.5704 128.879C44.5233 128.697 44.63 128.506 44.8152 128.458C45.0005 128.408 45.1888 128.518 45.2391 128.703C45.2862 128.889 45.1763 129.077 44.9942 129.127C44.9628 129.133 44.9345 129.137 44.9063 129.137C44.7525 129.137 44.6112 129.036 44.5704 128.879ZM44.0618 126.864C44.0178 126.678 44.1308 126.49 44.3161 126.446C44.5013 126.402 44.6865 126.515 44.7336 126.7C44.7776 126.886 44.6614 127.074 44.4762 127.118C44.4511 127.124 44.4228 127.127 44.3977 127.127C44.2407 127.127 44.0994 127.021 44.0618 126.864ZM43.5971 124.832C43.5563 124.647 43.6756 124.462 43.8608 124.424C44.0461 124.383 44.2313 124.5 44.2721 124.688C44.3129 124.873 44.1936 125.058 44.0084 125.099C43.9833 125.102 43.9582 125.106 43.9331 125.106C43.7761 125.106 43.6317 124.996 43.5971 124.832ZM43.1796 122.795C43.145 122.61 43.2675 122.428 43.4558 122.39C43.6411 122.355 43.8232 122.478 43.8577 122.663C43.8954 122.851 43.7729 123.033 43.5846 123.068C43.5626 123.068 43.5406 123.074 43.5186 123.074C43.3585 123.074 43.2141 122.961 43.1827 122.795H43.1796ZM42.806 120.748C42.7746 120.56 42.9002 120.381 43.0885 120.349C43.2769 120.318 43.4558 120.443 43.4841 120.632H43.4872C43.5186 120.82 43.3931 120.999 43.2047 121.03C43.1859 121.034 43.167 121.034 43.145 121.034C42.9818 121.034 42.8342 120.917 42.806 120.748ZM42.4795 118.692C42.4512 118.503 42.5799 118.327 42.7714 118.299C42.9598 118.271 43.1356 118.403 43.1607 118.591C43.189 118.779 43.0603 118.955 42.8719 118.984C42.8531 118.984 42.8374 118.984 42.8217 118.984C42.6521 118.984 42.5046 118.861 42.4795 118.688V118.692ZM42.1969 116.629C42.1718 116.441 42.3068 116.268 42.4952 116.243C42.6835 116.221 42.8562 116.356 42.8813 116.544C42.9033 116.733 42.7714 116.905 42.5799 116.93C42.5799 116.93 42.5517 116.93 42.5391 116.93C42.3664 116.93 42.2158 116.802 42.1938 116.626L42.1969 116.629ZM41.9646 114.56C41.9458 114.372 42.0839 114.202 42.2723 114.183C42.4638 114.164 42.6333 114.299 42.6521 114.491C42.671 114.679 42.5328 114.849 42.3445 114.871H42.3099C42.1341 114.871 41.9834 114.739 41.9646 114.56ZM41.7762 112.488C41.7605 112.296 41.9018 112.13 42.0933 112.114C42.2817 112.102 42.4481 112.243 42.4638 112.431C42.4795 112.623 42.3382 112.789 42.1467 112.805H42.1216C41.9426 112.805 41.7888 112.67 41.7762 112.488ZM41.6349 110.41C41.6224 110.221 41.7699 110.058 41.9583 110.045C42.1498 110.036 42.3131 110.18 42.3225 110.372C42.3319 110.56 42.1875 110.724 41.996 110.736H41.9772C41.7951 110.736 41.6412 110.595 41.6318 110.41H41.6349ZM41.5376 108.331C41.5313 108.14 41.682 107.98 41.8736 107.973C42.0619 107.967 42.222 108.115 42.2283 108.306C42.2346 108.498 42.087 108.658 41.8955 108.664H41.8861C41.7009 108.664 41.5439 108.516 41.5376 108.331ZM41.4905 106.25C41.4905 106.058 41.6412 105.901 41.8296 105.898C42.0211 105.898 42.1781 106.049 42.1812 106.24C42.1812 106.432 42.0305 106.589 41.839 106.589H41.8327C41.6444 106.589 41.4905 106.438 41.4905 106.25ZM41.8265 104.514C41.6381 104.514 41.4843 104.357 41.4843 104.168C41.4843 103.974 41.6444 103.823 41.8327 103.823C42.0242 103.823 42.1781 103.983 42.1781 104.175H42.1749C42.1749 104.363 42.018 104.514 41.8296 104.514H41.8265ZM41.861 102.445C41.6726 102.442 41.5219 102.281 41.5282 102.09C41.5345 101.898 41.6915 101.748 41.883 101.754C42.0745 101.76 42.222 101.92 42.2189 102.112C42.2126 102.297 42.0588 102.445 41.8704 102.445H41.861ZM41.9426 100.379C41.7511 100.366 41.6036 100.206 41.6161 100.015C41.6255 99.8233 41.7888 99.6788 41.9772 99.6882C42.1687 99.6977 42.3162 99.8609 42.3037 100.052C42.2942 100.235 42.1435 100.379 41.9583 100.379H41.9426ZM42.0651 98.3132C41.8767 98.2975 41.7354 98.1311 41.748 97.9427C41.7637 97.7512 41.9269 97.6099 42.1184 97.6225C42.3099 97.6382 42.4512 97.8046 42.4355 97.9929C42.423 98.175 42.2723 98.3132 42.0933 98.3132H42.0651ZM42.2377 96.2505C42.0462 96.2317 41.9081 96.0621 41.9269 95.8738C41.9458 95.6823 42.1153 95.5441 42.3037 95.563C42.4952 95.5818 42.6333 95.7482 42.6145 95.9397C42.5956 96.1187 42.4481 96.2505 42.2723 96.2505H42.2377ZM42.4544 94.191C42.266 94.169 42.131 93.9964 42.153 93.808C42.1749 93.6165 42.3476 93.4815 42.536 93.5066C42.7275 93.5286 42.8625 93.7013 42.8405 93.8896C42.8185 94.0654 42.6678 94.1942 42.4952 94.1942C42.4952 94.1942 42.47 94.1942 42.4544 94.1942V94.191ZM42.7181 92.1378C42.5297 92.1095 42.3978 91.9369 42.423 91.7485C42.4512 91.557 42.627 91.4251 42.8154 91.4534C43.0038 91.4816 43.1356 91.6575 43.1074 91.8458C43.0822 92.0154 42.9347 92.1409 42.7683 92.1409C42.7495 92.1409 42.7338 92.1409 42.7181 92.1409V92.1378ZM43.0257 90.0908C42.8374 90.0594 42.7086 89.8805 42.7432 89.6921C42.7746 89.5069 42.9504 89.3782 43.1388 89.4096C43.3271 89.441 43.4558 89.6199 43.4245 89.8083C43.3962 89.9747 43.2486 90.094 43.0822 90.094C43.0634 90.094 43.0446 90.094 43.0257 90.094V90.0908ZM43.3805 88.0502C43.1921 88.0156 43.0697 87.8367 43.1074 87.6483C43.1419 87.46 43.3208 87.3375 43.5092 87.3721C43.6976 87.4097 43.82 87.5887 43.7855 87.777C43.7541 87.9434 43.6097 88.0565 43.4464 88.0565C43.4245 88.0565 43.4025 88.0565 43.3805 88.0502ZM43.7824 86.0189C43.594 85.9813 43.4747 85.796 43.5155 85.6108C43.5532 85.4256 43.7384 85.3031 43.9268 85.3439C44.112 85.3848 44.2313 85.5669 44.1905 85.7552C44.156 85.9153 44.0115 86.0284 43.8546 86.0284C43.8294 86.0284 43.8043 86.0252 43.7824 86.0189ZM44.2282 83.9971C44.0429 83.9532 43.9268 83.7679 43.9707 83.5827C44.0147 83.3975 44.1999 83.2813 44.3851 83.3284C44.5704 83.3692 44.6865 83.5544 44.6426 83.7428C44.6049 83.8998 44.4636 84.0065 44.3067 84.0065C44.2815 84.0065 44.2533 84.0065 44.2282 83.9971ZM44.7179 81.9878C44.5327 81.9376 44.4228 81.7492 44.4699 81.5671C44.5201 81.3819 44.7085 81.272 44.8937 81.3191C45.0758 81.3662 45.1888 81.5546 45.1386 81.7398C45.0978 81.8937 44.9597 81.9973 44.8058 81.9973C44.7776 81.9973 44.7493 81.9941 44.7179 81.9878ZM45.2548 79.988C45.0727 79.9346 44.9659 79.7431 45.0162 79.561C45.0664 79.3758 45.2579 79.2722 45.44 79.3224C45.6252 79.3758 45.732 79.5673 45.6786 79.7494C45.6347 79.9001 45.4965 80.0006 45.3458 80.0006C45.3144 80.0006 45.283 80.0005 45.2516 79.988H45.2548ZM45.8356 78.0007C45.6535 77.9442 45.553 77.7495 45.6095 77.5675C45.666 77.3854 45.8576 77.2849 46.0396 77.3383C46.2217 77.3979 46.3253 77.5894 46.2688 77.7715C46.2217 77.9191 46.0867 78.0164 45.9392 78.0164C45.9046 78.0164 45.8701 78.0101 45.8356 78.0007ZM46.4635 76.026C46.2814 75.9663 46.1841 75.7685 46.2437 75.5896C46.3065 75.4075 46.5011 75.3102 46.6832 75.3698C46.8622 75.4326 46.9595 75.6272 46.8999 75.8093C46.8528 75.9538 46.7178 76.0448 46.5734 76.0448C46.5357 76.0448 46.498 76.0385 46.4635 76.026ZM47.1322 74.0669C46.9532 74.001 46.8622 73.8032 46.925 73.6243C46.9909 73.4453 47.1887 73.3511 47.3676 73.4171C47.5466 73.4798 47.6408 73.6808 47.5748 73.8597C47.5246 74.001 47.3928 74.0858 47.2515 74.0858C47.2107 74.0858 47.173 74.0795 47.1322 74.0669ZM47.848 72.1236C47.669 72.0545 47.5811 71.8536 47.6502 71.6778C47.7193 71.4988 47.9171 71.4109 48.096 71.4769C48.275 71.5459 48.3629 71.7468 48.2938 71.9258C48.2436 72.0639 48.1117 72.1456 47.9736 72.1456C47.9296 72.1456 47.8888 72.1393 47.848 72.1236ZM48.6077 70.1959C48.4288 70.1237 48.344 69.9228 48.4194 69.7439C48.4916 69.568 48.6925 69.4833 48.8683 69.5555C49.0441 69.6308 49.1289 69.8318 49.0567 70.0076C49.0033 70.1426 48.8715 70.2211 48.7365 70.2211C48.6925 70.2211 48.6486 70.2148 48.6077 70.1959ZM49.4083 68.2871C49.2325 68.2087 49.154 68.0046 49.2294 67.8319C49.3078 67.6561 49.5119 67.5776 49.6846 67.653C49.8604 67.7283 49.9389 67.9324 49.8635 68.1082C49.807 68.2369 49.6783 68.3154 49.5464 68.3154C49.4994 68.3154 49.4523 68.306 49.4083 68.2871ZM50.2528 66.394C50.077 66.3155 50.0048 66.1083 50.0833 65.9357C50.1649 65.763 50.369 65.6876 50.5417 65.7693C50.7143 65.8478 50.7897 66.0518 50.7112 66.2276C50.6515 66.3532 50.526 66.4286 50.3972 66.4286C50.347 66.4286 50.2999 66.416 50.2528 66.394ZM51.1382 64.5229C50.9686 64.4381 50.8964 64.2309 50.9812 64.0614C51.066 63.8887 51.2732 63.8197 51.4427 63.9044C51.6154 63.9861 51.6844 64.1933 51.5997 64.3659C51.54 64.4884 51.4176 64.5574 51.292 64.5574C51.2386 64.5574 51.1884 64.548 51.1382 64.5229ZM52.0675 62.6706C51.8979 62.5827 51.832 62.3755 51.9199 62.206C52.0078 62.0364 52.215 61.9705 52.3845 62.0584C52.5541 62.1463 52.62 62.3535 52.5321 62.523C52.4693 62.6423 52.35 62.7114 52.2244 62.7114C52.1711 62.7114 52.1177 62.6989 52.0675 62.6706ZM53.0376 60.8403C52.868 60.7492 52.8084 60.5389 52.8994 60.3725C52.9905 60.203 53.2008 60.1433 53.3703 60.2344C53.5367 60.3286 53.5964 60.5358 53.5053 60.7053C53.4425 60.8183 53.3232 60.8842 53.2039 60.8842C53.1474 60.8842 53.0909 60.8685 53.0376 60.8403ZM54.0485 59.0319C53.8821 58.9378 53.8256 58.7243 53.9229 58.561C54.0171 58.3946 54.2274 58.3413 54.3938 58.4354C54.5571 58.5296 54.6136 58.7431 54.5194 58.9064C54.4566 59.0162 54.3404 59.079 54.2211 59.079C54.1615 59.079 54.1018 59.0633 54.0485 59.0319Z" fill="url(#paint55_linear_30_5568)"/>
<path d="M214.308 58.9061C214.214 58.7429 214.27 58.5294 214.434 58.4352C214.6 58.341 214.81 58.3944 214.908 58.5608C215.002 58.7272 214.945 58.9375 214.779 59.0317C214.726 59.0631 214.666 59.0788 214.606 59.0788C214.487 59.0788 214.374 59.016 214.308 58.9061ZM213.253 57.1292C213.153 56.9659 213.206 56.7556 213.369 56.6551C213.533 56.5547 213.746 56.608 213.844 56.7713C213.941 56.9345 213.891 57.1449 213.727 57.2454C213.671 57.2799 213.611 57.2956 213.548 57.2956C213.432 57.2956 213.319 57.2359 213.253 57.1292ZM212.161 55.3774C212.057 55.2172 212.104 55.0038 212.264 54.9002C212.424 54.7966 212.638 54.8437 212.742 55.0038C212.845 55.167 212.798 55.3774 212.638 55.481C212.578 55.5186 212.516 55.5375 212.45 55.5375C212.337 55.5375 212.227 55.481 212.161 55.3774ZM211.027 53.6506C210.921 53.4905 210.961 53.277 211.122 53.1703C211.279 53.0636 211.492 53.1075 211.599 53.2645C211.706 53.4246 211.665 53.6381 211.505 53.7448C211.448 53.7825 211.379 53.8013 211.313 53.8013C211.203 53.8013 211.093 53.748 211.027 53.6506ZM209.856 51.949C209.746 51.7921 209.781 51.5786 209.938 51.4687C210.095 51.3588 210.312 51.3965 210.421 51.5503C210.528 51.7073 210.494 51.9208 210.337 52.0307C210.277 52.0746 210.208 52.0935 210.139 52.0935C210.029 52.0935 209.922 52.0432 209.856 51.949ZM208.648 50.2726C208.532 50.1219 208.566 49.9052 208.72 49.7922C208.874 49.6761 209.087 49.7106 209.203 49.8644C209.316 50.0183 209.282 50.2349 209.128 50.3479C209.068 50.3919 208.996 50.4138 208.924 50.4138C208.817 50.4138 208.714 50.3667 208.648 50.2726ZM207.401 48.6275C207.285 48.4768 207.313 48.2602 207.464 48.144C207.615 48.0247 207.831 48.0529 207.948 48.2036C208.064 48.3543 208.035 48.571 207.885 48.6871C207.822 48.7374 207.747 48.7625 207.674 48.7625C207.571 48.7625 207.47 48.7154 207.401 48.6275ZM206.117 47.0075C205.995 46.8599 206.02 46.6433 206.167 46.5209C206.315 46.4016 206.532 46.4236 206.651 46.5742C206.77 46.7218 206.748 46.9384 206.598 47.0577C206.535 47.1111 206.456 47.1362 206.381 47.1362C206.281 47.1362 206.18 47.0923 206.111 47.0075H206.117ZM204.802 45.4189C204.679 45.2714 204.695 45.0547 204.843 44.9323C204.987 44.8067 205.204 44.8256 205.329 44.9731C205.452 45.1175 205.433 45.3342 205.288 45.4597C205.223 45.5131 205.144 45.5414 205.066 45.5414C204.968 45.5414 204.871 45.4974 204.802 45.4189ZM203.449 43.8586C203.323 43.7173 203.336 43.4976 203.477 43.372C203.621 43.2433 203.838 43.2558 203.967 43.4002C204.092 43.5415 204.08 43.7613 203.935 43.8869C203.869 43.9465 203.788 43.9748 203.706 43.9748C203.612 43.9748 203.518 43.9339 203.449 43.8586ZM202.061 42.3297C201.932 42.1884 201.942 41.9718 202.08 41.8399C202.221 41.7112 202.438 41.7175 202.57 41.8587C202.698 42 202.689 42.2166 202.551 42.3485C202.485 42.4082 202.4 42.4396 202.315 42.4396C202.221 42.4396 202.13 42.4019 202.061 42.3297ZM200.642 40.8321C200.51 40.694 200.513 40.4742 200.648 40.3424C200.786 40.2105 201.006 40.2137 201.138 40.3487C201.27 40.4868 201.267 40.7066 201.129 40.8384C201.063 40.9043 200.975 40.9357 200.89 40.9357C200.799 40.9357 200.708 40.9012 200.642 40.8321ZM199.188 39.366C199.053 39.231 199.05 39.0112 199.185 38.8762C199.32 38.7412 199.537 38.7381 199.675 38.8762C199.81 39.0112 199.81 39.2279 199.675 39.366C199.606 39.4319 199.518 39.4665 199.427 39.4665C199.339 39.4665 199.251 39.4351 199.185 39.3691L199.188 39.366ZM197.703 37.9313C197.565 37.8025 197.559 37.5828 197.688 37.4446C197.82 37.3034 198.039 37.3002 198.177 37.4289C198.316 37.5608 198.322 37.7806 198.193 37.9187C198.124 37.9909 198.033 38.0254 197.942 38.0254C197.854 38.0254 197.769 37.994 197.703 37.9313ZM196.187 36.531C196.046 36.4055 196.033 36.1857 196.162 36.0444C196.291 35.9031 196.507 35.8937 196.649 36.0193C196.793 36.148 196.802 36.3646 196.674 36.5059C196.608 36.5844 196.514 36.6221 196.419 36.6221C196.335 36.6221 196.253 36.5907 196.187 36.531ZM194.639 35.1685C194.495 35.0429 194.479 34.8232 194.605 34.6787C194.727 34.5343 194.947 34.5186 195.091 34.6442C195.236 34.7698 195.252 34.9864 195.126 35.1308C195.057 35.2093 194.963 35.2501 194.865 35.2501C194.784 35.2501 194.705 35.2219 194.639 35.1685ZM193.063 33.8374C192.916 33.7149 192.894 33.4983 193.016 33.3507C193.135 33.2032 193.355 33.1812 193.503 33.3037C193.65 33.4261 193.669 33.6427 193.547 33.7903C193.481 33.8719 193.38 33.9159 193.283 33.9159C193.205 33.9159 193.126 33.8907 193.063 33.8374ZM191.456 32.5408C191.305 32.4246 191.28 32.2048 191.399 32.0573C191.516 31.9066 191.735 31.8815 191.883 31.9976C192.034 32.1169 192.059 32.3336 191.942 32.4842C191.873 32.5722 191.773 32.6161 191.669 32.6161C191.594 32.6161 191.519 32.591 191.456 32.5408ZM189.823 31.2818C189.67 31.1688 189.638 30.9522 189.754 30.7983C189.867 30.6476 190.084 30.6163 190.238 30.7324C190.388 30.8454 190.42 31.0621 190.307 31.2159C190.238 31.3038 190.134 31.3509 190.031 31.3509C189.958 31.3509 189.883 31.3289 189.823 31.2818ZM188.159 30.0606C188.006 29.9507 187.971 29.7341 188.081 29.5802C188.191 29.4232 188.407 29.3887 188.564 29.5017C188.718 29.6116 188.753 29.8251 188.643 29.9821C188.574 30.0763 188.467 30.1265 188.36 30.1265C188.291 30.1265 188.222 30.1045 188.159 30.0606ZM186.47 28.877C186.313 28.7702 186.273 28.5536 186.382 28.3966C186.489 28.2397 186.703 28.1989 186.863 28.3056C187.02 28.4155 187.061 28.629 186.951 28.7859C186.885 28.8833 186.775 28.9366 186.668 28.9366C186.599 28.9366 186.53 28.9178 186.47 28.877ZM184.756 27.7311C184.596 27.6275 184.552 27.4108 184.656 27.2539C184.759 27.0906 184.976 27.0467 185.136 27.1503C185.293 27.257 185.34 27.4705 185.233 27.6306C185.167 27.7311 185.058 27.7876 184.945 27.7876C184.879 27.7876 184.816 27.7687 184.756 27.7311ZM183.017 26.6228C182.857 26.5224 182.807 26.3089 182.907 26.1456C183.008 25.9855 183.221 25.9353 183.381 26.0357C183.544 26.1362 183.595 26.3497 183.494 26.513C183.428 26.6166 183.315 26.6731 183.199 26.6731C183.136 26.6731 183.073 26.6574 183.017 26.6228ZM181.256 25.5554C181.089 25.4581 181.036 25.2446 181.133 25.0813C181.231 24.9181 181.441 24.8616 181.604 24.9589H181.607C181.771 25.0562 181.824 25.2666 181.727 25.433C181.664 25.5429 181.548 25.6025 181.428 25.6025C181.369 25.6025 181.309 25.5868 181.256 25.5554ZM179.469 24.5257C179.303 24.4315 179.243 24.2211 179.334 24.0547C179.429 23.8883 179.639 23.8287 179.805 23.9229C179.972 24.0171 180.031 24.2274 179.937 24.3938C179.874 24.5068 179.758 24.5696 179.636 24.5696C179.579 24.5696 179.523 24.5539 179.469 24.5257ZM177.658 23.5367C177.491 23.4488 177.426 23.2385 177.517 23.0689C177.604 22.9025 177.815 22.8366 177.984 22.9277C178.151 23.0187 178.217 23.2259 178.126 23.3954C178.063 23.5116 177.944 23.5775 177.821 23.5775C177.765 23.5775 177.711 23.565 177.658 23.5367ZM175.828 22.5886C175.658 22.5038 175.589 22.2966 175.674 22.1271C175.762 21.9544 175.969 21.8885 176.138 21.9733C176.311 22.058 176.377 22.2652 176.292 22.4379C176.233 22.5572 176.11 22.6263 175.984 22.6263C175.931 22.6263 175.878 22.6137 175.828 22.5886ZM173.978 21.6844C173.806 21.6028 173.73 21.3956 173.815 21.2229C173.897 21.0502 174.101 20.978 174.273 21.0597C174.446 21.1413 174.518 21.3485 174.437 21.5212C174.377 21.6436 174.255 21.719 174.126 21.719C174.076 21.719 174.025 21.7064 173.978 21.6844ZM172.107 20.8211C171.931 20.7426 171.856 20.5385 171.935 20.3627C172.01 20.19 172.214 20.1115 172.39 20.19C172.562 20.2685 172.641 20.4726 172.562 20.6453C172.506 20.774 172.38 20.8493 172.249 20.8493C172.201 20.8493 172.151 20.8399 172.107 20.8211ZM170.217 19.9985C170.041 19.9232 169.96 19.7222 170.032 19.5464C170.107 19.3706 170.311 19.289 170.487 19.3612C170.663 19.4366 170.745 19.6375 170.669 19.8133C170.613 19.9451 170.487 20.0268 170.352 20.0268C170.305 20.0268 170.261 20.0174 170.217 19.9985ZM168.312 19.2199C168.133 19.1509 168.045 18.9499 168.117 18.771C168.186 18.592 168.387 18.5073 168.566 18.5763H168.563C168.742 18.6485 168.83 18.8463 168.757 19.0253C168.704 19.1603 168.575 19.245 168.437 19.245C168.396 19.245 168.352 19.2356 168.312 19.2199ZM166.387 18.4853C166.208 18.4162 166.117 18.2184 166.183 18.0395C166.249 17.8605 166.447 17.7695 166.626 17.8354C166.805 17.9013 166.896 18.0991 166.833 18.2781C166.78 18.4194 166.648 18.5041 166.506 18.5041C166.469 18.5041 166.428 18.4978 166.387 18.4853ZM164.447 17.7915C164.268 17.7287 164.171 17.534 164.233 17.3519C164.296 17.173 164.491 17.0757 164.673 17.1385C164.852 17.2012 164.949 17.3959 164.886 17.578C164.836 17.7224 164.704 17.8103 164.56 17.8103C164.522 17.8103 164.485 17.804 164.447 17.7915ZM162.494 17.1447C162.312 17.0851 162.212 16.8904 162.268 16.7083C162.328 16.5263 162.522 16.4258 162.704 16.4854C162.887 16.542 162.984 16.7366 162.927 16.9187C162.88 17.0662 162.745 17.1604 162.598 17.1604C162.563 17.1604 162.529 17.1541 162.494 17.1447ZM160.526 16.5388C160.344 16.4854 160.237 16.2939 160.293 16.1118C160.347 15.9266 160.538 15.823 160.72 15.8764C160.902 15.9329 161.009 16.1213 160.956 16.3065C160.909 16.4572 160.774 16.5545 160.623 16.5545C160.592 16.5545 160.557 16.5482 160.526 16.5388ZM158.545 15.98C158.363 15.9298 158.253 15.7414 158.303 15.5562C158.35 15.3709 158.542 15.2642 158.727 15.3144C158.909 15.3615 159.019 15.553 158.968 15.7382C158.928 15.8921 158.786 15.9925 158.636 15.9925C158.607 15.9925 158.576 15.9925 158.545 15.98ZM156.554 15.4651C156.369 15.4212 156.256 15.2328 156.3 15.0476C156.347 14.8623 156.532 14.7493 156.717 14.7964C156.903 14.8404 157.016 15.0287 156.972 15.214C156.931 15.3709 156.79 15.4745 156.636 15.4745C156.608 15.4745 156.579 15.4745 156.554 15.4651ZM154.551 14.9973C154.363 14.9534 154.247 14.7681 154.288 14.5829C154.328 14.3977 154.514 14.2815 154.699 14.3223C154.887 14.3632 155.003 14.5484 154.963 14.7336C154.925 14.8937 154.784 15.0036 154.627 15.0036C154.601 15.0036 154.576 15.0036 154.551 14.9973ZM152.529 14.5704C152.344 14.5327 152.222 14.3506 152.259 14.1654C152.297 13.977 152.479 13.8546 152.664 13.8922C152.853 13.9299 152.972 14.112 152.938 14.3004C152.903 14.4636 152.759 14.5766 152.598 14.5766C152.577 14.5766 152.555 14.5735 152.529 14.5704ZM150.501 14.1905C150.313 14.1559 150.187 13.977 150.222 13.7886C150.253 13.6003 150.432 13.4747 150.621 13.5092C150.809 13.5437 150.935 13.7227 150.903 13.9111C150.872 14.0775 150.724 14.1936 150.561 14.1936C150.542 14.1936 150.523 14.1936 150.501 14.1936V14.1905ZM148.467 13.8546C148.275 13.8263 148.147 13.6505 148.175 13.4621C148.203 13.2737 148.382 13.1419 148.571 13.1733C148.759 13.2015 148.888 13.3774 148.859 13.5657C148.831 13.7353 148.684 13.8577 148.517 13.8577C148.517 13.8577 148.483 13.8577 148.467 13.8546ZM146.423 13.5657C146.232 13.5406 146.1 13.3679 146.125 13.1796C146.147 12.9881 146.323 12.8562 146.511 12.8813C146.699 12.9064 146.834 13.0791 146.809 13.2675C146.787 13.4433 146.637 13.5689 146.467 13.5689C146.467 13.5689 146.436 13.5689 146.423 13.5689V13.5657ZM144.373 13.324C144.182 13.302 144.047 13.1325 144.065 12.941C144.084 12.7526 144.257 12.6145 144.445 12.6364C144.634 12.6553 144.772 12.8279 144.753 13.0163C144.734 13.1921 144.583 13.324 144.408 13.324H144.373ZM142.317 13.1262C142.128 13.1105 141.987 12.941 142.003 12.7526C142.018 12.5611 142.185 12.4198 142.376 12.4355C142.565 12.4543 142.706 12.6207 142.69 12.8091C142.675 12.9912 142.524 13.1262 142.348 13.1262H142.317ZM140.26 12.9724H140.257C140.069 12.9598 139.924 12.7965 139.937 12.6082C139.946 12.4167 140.113 12.2723 140.301 12.2848C140.493 12.2942 140.637 12.4606 140.625 12.6521C140.612 12.8342 140.461 12.9755 140.279 12.9755C140.279 12.9755 140.267 12.9755 140.26 12.9755V12.9724ZM138.198 12.8688C138.006 12.8593 137.859 12.6992 137.868 12.5077C137.874 12.3193 138.034 12.1687 138.226 12.1781C138.417 12.1843 138.565 12.3445 138.556 12.536C138.549 12.7212 138.395 12.8688 138.21 12.8688H138.198ZM136.138 12.806C135.947 12.806 135.796 12.6459 135.799 12.4543C135.799 12.266 135.959 12.1121 136.151 12.1153C136.342 12.1184 136.493 12.2785 136.49 12.4669C136.49 12.6553 136.333 12.806 136.144 12.806H136.138Z" fill="url(#paint56_linear_30_5568)"/>
<path d="M214.905 151.509L214.309 151.164C222.387 137.203 226.656 121.254 226.656 105.035C226.656 88.8168 222.387 72.8683 214.309 58.907L214.905 58.5616C223.043 72.6265 227.344 88.6975 227.344 105.035C227.344 121.373 223.043 137.444 214.905 151.509Z" fill="url(#paint57_linear_30_5568)"/>
<path d="M134.413 13.9402C135.238 13.9402 135.907 13.2711 135.907 12.4458C135.907 11.6205 135.238 10.9514 134.413 10.9514C133.588 10.9514 132.919 11.6205 132.919 12.4458C132.919 13.2711 133.588 13.9402 134.413 13.9402Z" fill="url(#paint58_linear_30_5568)"/>
<path d="M55.9287 58.7343C55.9287 59.6793 55.1627 60.4454 54.2177 60.4454C53.2727 60.4454 52.5067 59.6793 52.5067 58.7343C52.5067 57.7894 53.2727 57.0233 54.2177 57.0233C55.1627 57.0233 55.9287 57.7894 55.9287 58.7343Z" fill="url(#paint59_linear_30_5568)"/>
<path d="M214.125 153.421C213.463 153.421 212.923 152.881 212.923 152.219C212.923 151.557 213.463 151.017 214.125 151.017C214.788 151.017 215.328 151.557 215.328 152.219C215.328 152.881 214.788 153.421 214.125 153.421ZM214.125 151.365C213.654 151.365 213.268 151.748 213.268 152.222C213.268 152.696 213.651 153.079 214.125 153.079C214.599 153.079 214.982 152.696 214.982 152.222C214.982 151.748 214.599 151.365 214.125 151.365Z" fill="url(#paint60_linear_30_5568)"/>
<path d="M216.756 148.655C217.444 148.655 218.002 148.097 218.002 147.409C218.002 146.721 217.444 146.163 216.756 146.163C216.068 146.163 215.51 146.721 215.51 147.409C215.51 148.097 216.068 148.655 216.756 148.655Z" fill="url(#paint61_linear_30_5568)"/>
<path d="M222.639 136.396C222.639 137.002 222.146 137.495 221.54 137.495C220.934 137.495 220.441 137.002 220.441 136.396C220.441 135.79 220.934 135.297 221.54 135.297C222.146 135.297 222.639 135.79 222.639 136.396Z" fill="url(#paint62_linear_30_5568)"/>
<path d="M55.6622 152.015C55.6622 152.561 55.2195 153.004 54.6733 153.004C54.127 153.004 53.6843 152.561 53.6843 152.015C53.6843 151.468 54.127 151.026 54.6733 151.026C55.2195 151.026 55.6622 151.468 55.6622 152.015Z" fill="url(#paint63_linear_30_5568)"/>
<path d="M215.536 45.0689L215.313 44.8052L225.161 36.4353H268.226V36.7806H225.287L215.536 45.0689Z" fill="url(#paint64_linear_30_5568)"/>
<path d="M267.545 140.728H225.724L221.423 136.427L221.665 136.182L225.869 140.383H267.545V140.728Z" fill="url(#paint65_linear_30_5568)"/>
<path d="M39.1292 70.2405H0.77417V70.4131H39.1292V70.2405Z" fill="url(#paint66_linear_30_5568)"/>
<path d="M62.7413 184.047H0.77417V183.874H62.308L56.7072 178.613L56.8265 178.487L62.7413 184.047Z" fill="url(#paint67_linear_30_5568)"/>
<path d="M227.715 110.162C227.715 110.658 227.313 111.06 226.817 111.06C226.321 111.06 225.919 110.658 225.919 110.162C225.919 109.666 226.321 109.264 226.817 109.264C227.313 109.264 227.715 109.666 227.715 110.162Z" fill="url(#paint68_linear_30_5568)"/>
<path d="M37.2013 76.7738L37.0317 76.7361C37.8041 73.4302 39.8792 67.8702 41.7378 64.8625L41.8854 64.9536C40.0362 67.9455 37.9704 73.4836 37.2013 76.7769V76.7738Z" fill="url(#paint69_linear_30_5568)"/>
<path d="M39.6814 70.3476C39.6814 70.649 39.4365 70.8907 39.1382 70.8907C38.84 70.8907 38.5951 70.6458 38.5951 70.3476C38.5951 70.0493 38.84 69.8044 39.1382 69.8044C39.4365 69.8044 39.6814 70.0493 39.6814 70.3476Z" fill="url(#paint70_linear_30_5568)"/>
<path d="M63.1426 183.909C63.1426 184.286 62.8381 184.593 62.4582 184.593C62.0783 184.593 61.7738 184.289 61.7738 183.909C61.7738 183.529 62.0783 183.224 62.4582 183.224C62.8381 183.224 63.1426 183.529 63.1426 183.909Z" fill="url(#paint71_linear_30_5568)"/>
<path d="M56.8301 178.989C57.0711 178.989 57.2665 178.793 57.2665 178.552C57.2665 178.311 57.0711 178.116 56.8301 178.116C56.5891 178.116 56.3937 178.311 56.3937 178.552C56.3937 178.793 56.5891 178.989 56.8301 178.989Z" fill="url(#paint72_linear_30_5568)"/>
<path d="M225.231 37.1797C225.568 37.1797 225.841 36.907 225.841 36.5706C225.841 36.2342 225.568 35.9615 225.231 35.9615C224.895 35.9615 224.622 36.2342 224.622 36.5706C224.622 36.907 224.895 37.1797 225.231 37.1797Z" fill="url(#paint73_linear_30_5568)"/>
<path d="M215.985 44.9403C215.985 45.248 215.737 45.496 215.429 45.496C215.122 45.496 214.874 45.248 214.874 44.9403C214.874 44.6327 215.122 44.3846 215.429 44.3846C215.737 44.3846 215.985 44.6327 215.985 44.9403Z" fill="url(#paint74_linear_30_5568)"/>
<defs>
<linearGradient id="paint0_linear_30_5568" x1="193.16" y1="155.602" x2="86.4576" y2="48.9" gradientUnits="userSpaceOnUse">
<stop stop-color="#D7AC4C"/>
<stop offset="0.18" stop-color="#FFFFB0"/>
<stop offset="0.33" stop-color="#F4D174"/>
<stop offset="0.37" stop-color="#FBED99"/>
<stop offset="0.39" stop-color="#FAEC97"/>
<stop offset="0.43" stop-color="#DEB04D"/>
<stop offset="0.53" stop-color="#DEB14E"/>
<stop offset="0.56" stop-color="#E1B755"/>
<stop offset="0.59" stop-color="#E6C061"/>
<stop offset="0.61" stop-color="#EDCE72"/>
<stop offset="0.62" stop-color="#F6DF86"/>
<stop offset="0.75" stop-color="#F1D87E"/>
<stop offset="0.77" stop-color="#EACC71"/>
<stop offset="0.78" stop-color="#E1BD60"/>
<stop offset="0.79" stop-color="#DBB354"/>
<stop offset="0.81" stop-color="#D7AD4D"/>
<stop offset="0.85" stop-color="#D7AC4C"/>
<stop offset="1" stop-color="#966424"/>
</linearGradient>
<linearGradient id="paint1_linear_30_5568" x1="189.417" y1="109.339" x2="106.887" y2="63.8331" gradientUnits="userSpaceOnUse">
<stop stop-color="#A16C0C"/>
<stop offset="0.23" stop-color="#DFC072"/>
<stop offset="0.56" stop-color="#A8700D"/>
<stop offset="0.75" stop-color="#FADB85"/>
<stop offset="0.8" stop-color="#A16C0C"/>
<stop offset="0.93" stop-color="#6C4405"/>
</linearGradient>
<linearGradient id="paint2_linear_30_5568" x1="178.145" y1="127.694" x2="180.185" y2="127.694" gradientUnits="userSpaceOnUse">
<stop stop-color="#A16C0C"/>
<stop offset="0.18" stop-color="#C9BF70"/>
<stop offset="0.33" stop-color="#BE9134"/>
<stop offset="0.43" stop-color="#A8700D"/>
<stop offset="0.71" stop-color="#C09F46"/>
<stop offset="0.85" stop-color="#A16C0C"/>
<stop offset="1" stop-color="#602400"/>
</linearGradient>
<linearGradient id="paint3_linear_30_5568" x1="54.2965" y1="71.624" x2="172.155" y2="158.934" gradientUnits="userSpaceOnUse">
<stop stop-color="#B39200"/>
<stop offset="0.06" stop-color="#AD8C00"/>
<stop offset="0.13" stop-color="#9D7B03"/>
<stop offset="0.22" stop-color="#836008"/>
<stop offset="0.26" stop-color="#73500B"/>
<stop offset="0.28" stop-color="#785311"/>
<stop offset="0.36" stop-color="#8A5D24"/>
<stop offset="0.41" stop-color="#91612B"/>
<stop offset="0.43" stop-color="#976707"/>
<stop offset="0.53" stop-color="#D8B364"/>
<stop offset="0.55" stop-color="#D4AD5D"/>
<stop offset="0.58" stop-color="#C99F4A"/>
<stop offset="0.61" stop-color="#B9872B"/>
<stop offset="0.64" stop-color="#A8700D"/>
<stop offset="0.68" stop-color="#815400"/>
<stop offset="0.8" stop-color="#B38136"/>
<stop offset="0.82" stop-color="#A1702C"/>
<stop offset="0.85" stop-color="#80501B"/>
<stop offset="0.88" stop-color="#6C3D10"/>
<stop offset="0.9" stop-color="#65360D"/>
<stop offset="0.91" stop-color="#6E3E0C"/>
<stop offset="0.94" stop-color="#8A570C"/>
<stop offset="0.96" stop-color="#9B660C"/>
<stop offset="0.98" stop-color="#A16C0C"/>
<stop offset="1" stop-color="#B9924B"/>
</linearGradient>
<linearGradient id="paint4_linear_30_5568" x1="195.924" y1="148.354" x2="68.8098" y2="43.4535" gradientUnits="userSpaceOnUse">
<stop stop-color="#D7AC4C"/>
<stop offset="0.18" stop-color="#FFFFB0"/>
<stop offset="0.33" stop-color="#F4D174"/>
<stop offset="0.37" stop-color="#FBED99"/>
<stop offset="0.39" stop-color="#FAEC97"/>
<stop offset="0.43" stop-color="#DEB04D"/>
<stop offset="0.53" stop-color="#DEB14E"/>
<stop offset="0.56" stop-color="#E1B755"/>
<stop offset="0.59" stop-color="#E6C061"/>
<stop offset="0.61" stop-color="#EDCE72"/>
<stop offset="0.62" stop-color="#F6DF86"/>
<stop offset="0.75" stop-color="#F1D87E"/>
<stop offset="0.77" stop-color="#EACC71"/>
<stop offset="0.78" stop-color="#E1BD60"/>
<stop offset="0.79" stop-color="#DBB354"/>
<stop offset="0.81" stop-color="#D7AD4D"/>
<stop offset="0.85" stop-color="#D7AC4C"/>
<stop offset="1" stop-color="#966424"/>
</linearGradient>
<linearGradient id="paint5_linear_30_5568" x1="102.427" y1="68.5554" x2="174.854" y2="133.61" gradientUnits="userSpaceOnUse">
<stop stop-color="#D7AC4C"/>
<stop offset="0.18" stop-color="#FFFFB0"/>
<stop offset="0.33" stop-color="#F4D174"/>
<stop offset="0.43" stop-color="#DEB04D"/>
<stop offset="0.71" stop-color="#F6DF86"/>
<stop offset="0.85" stop-color="#D7AC4C"/>
<stop offset="1" stop-color="#966424"/>
</linearGradient>
<linearGradient id="paint6_linear_30_5568" x1="122.264" y1="72.916" x2="128.352" y2="80.3207" gradientUnits="userSpaceOnUse">
<stop stop-color="#A16C0C"/>
<stop offset="0.23" stop-color="#BE9134"/>
<stop offset="0.56" stop-color="#A8700D"/>
<stop offset="1" stop-color="#432400"/>
</linearGradient>
<linearGradient id="paint7_linear_30_5568" x1="147.547" y1="89.6752" x2="137.057" y2="87.3551" gradientUnits="userSpaceOnUse">
<stop stop-color="#A16C0C"/>
<stop offset="0.23" stop-color="#BE9134"/>
<stop offset="0.56" stop-color="#A8700D"/>
<stop offset="1" stop-color="#432400"/>
</linearGradient>
<linearGradient id="paint8_linear_30_5568" x1="124.699" y1="91.5019" x2="130.952" y2="88.721" gradientUnits="userSpaceOnUse">
<stop stop-color="#A16C0C"/>
<stop offset="0.23" stop-color="#BE9134"/>
<stop offset="0.56" stop-color="#A8700D"/>
<stop offset="1" stop-color="#432400"/>
</linearGradient>
<linearGradient id="paint9_linear_30_5568" x1="134.654" y1="95.7307" x2="128.566" y2="90.0948" gradientUnits="userSpaceOnUse">
<stop stop-color="#A16C0C"/>
<stop offset="0.23" stop-color="#BE9134"/>
<stop offset="0.56" stop-color="#A8700D"/>
<stop offset="1" stop-color="#432400"/>
</linearGradient>
<linearGradient id="paint10_linear_30_5568" x1="143.014" y1="110.145" x2="150.764" y2="110.145" gradientUnits="userSpaceOnUse">
<stop stop-color="#A16C0C"/>
<stop offset="0.23" stop-color="#BE9134"/>
<stop offset="0.56" stop-color="#A8700D"/>
<stop offset="1" stop-color="#432400"/>
</linearGradient>
<linearGradient id="paint11_linear_30_5568" x1="155.98" y1="115.074" x2="142.331" y2="106.97" gradientUnits="userSpaceOnUse">
<stop stop-color="#A16C0C"/>
<stop offset="0.23" stop-color="#BE9134"/>
<stop offset="0.56" stop-color="#A8700D"/>
<stop offset="1" stop-color="#432400"/>
</linearGradient>
<linearGradient id="paint12_linear_30_5568" x1="148.946" y1="113.379" x2="150.352" y2="113.379" gradientUnits="userSpaceOnUse">
<stop stop-color="#A16C0C"/>
<stop offset="0.18" stop-color="#DBBF7D"/>
<stop offset="0.33" stop-color="#BE9134"/>
<stop offset="0.43" stop-color="#A8700D"/>
<stop offset="0.71" stop-color="#D9AA59"/>
<stop offset="0.85" stop-color="#A16C0C"/>
<stop offset="1" stop-color="#602400"/>
</linearGradient>
<linearGradient id="paint13_linear_30_5568" x1="115.575" y1="96.3231" x2="137.419" y2="96.3231" gradientUnits="userSpaceOnUse">
<stop stop-color="#A16C0C"/>
<stop offset="0.23" stop-color="#BE9134"/>
<stop offset="0.56" stop-color="#A8700D"/>
<stop offset="1" stop-color="#432400"/>
</linearGradient>
<linearGradient id="paint14_linear_30_5568" x1="145.078" y1="117.287" x2="132.425" y2="105.719" gradientUnits="userSpaceOnUse">
<stop stop-color="#A16C0C"/>
<stop offset="0.23" stop-color="#BE9134"/>
<stop offset="0.56" stop-color="#A8700D"/>
<stop offset="1" stop-color="#432400"/>
</linearGradient>
<linearGradient id="paint15_linear_30_5568" x1="163.286" y1="120.249" x2="148.016" y2="120.792" gradientUnits="userSpaceOnUse">
<stop stop-color="#A16C0C"/>
<stop offset="0.23" stop-color="#BE9134"/>
<stop offset="0.56" stop-color="#A8700D"/>
<stop offset="1" stop-color="#432400"/>
</linearGradient>
<linearGradient id="paint16_linear_30_5568" x1="150.155" y1="131.808" x2="139.739" y2="124.017" gradientUnits="userSpaceOnUse">
<stop stop-color="#A16C0C"/>
<stop offset="0.23" stop-color="#BE9134"/>
<stop offset="0.56" stop-color="#A8700D"/>
<stop offset="1" stop-color="#432400"/>
</linearGradient>
<linearGradient id="paint17_linear_30_5568" x1="149.077" y1="127.859" x2="149.39" y2="132.409" gradientUnits="userSpaceOnUse">
<stop stop-color="#A16C0C"/>
<stop offset="0.23" stop-color="#BE9134"/>
<stop offset="0.56" stop-color="#A8700D"/>
<stop offset="1" stop-color="#432400"/>
</linearGradient>
<linearGradient id="paint18_linear_30_5568" x1="125.267" y1="123.26" x2="144.256" y2="123.26" gradientUnits="userSpaceOnUse">
<stop stop-color="#A16C0C"/>
<stop offset="0.23" stop-color="#BE9134"/>
<stop offset="0.56" stop-color="#A8700D"/>
<stop offset="1" stop-color="#432400"/>
</linearGradient>
<linearGradient id="paint19_linear_30_5568" x1="158.053" y1="121.927" x2="104.163" y2="66.1857" gradientUnits="userSpaceOnUse">
<stop stop-color="#D7AC4C"/>
<stop offset="0.18" stop-color="#FFFFB0"/>
<stop offset="0.33" stop-color="#F4D174"/>
<stop offset="0.37" stop-color="#FBED99"/>
<stop offset="0.39" stop-color="#FAEC97"/>
<stop offset="0.43" stop-color="#DEB04D"/>
<stop offset="0.53" stop-color="#DEB14E"/>
<stop offset="0.56" stop-color="#E1B755"/>
<stop offset="0.59" stop-color="#E6C061"/>
<stop offset="0.61" stop-color="#EDCE72"/>
<stop offset="0.62" stop-color="#F6DF86"/>
<stop offset="0.75" stop-color="#F1D87E"/>
<stop offset="0.77" stop-color="#EACC71"/>
<stop offset="0.78" stop-color="#E1BD60"/>
<stop offset="0.79" stop-color="#DBB354"/>
<stop offset="0.81" stop-color="#D7AD4D"/>
<stop offset="0.85" stop-color="#D7AC4C"/>
<stop offset="1" stop-color="#966424"/>
</linearGradient>
<linearGradient id="paint20_linear_30_5568" x1="132.564" y1="129.546" x2="120.84" y2="107.8" gradientUnits="userSpaceOnUse">
<stop stop-color="#A16C0C"/>
<stop offset="0.23" stop-color="#BE9134"/>
<stop offset="0.56" stop-color="#A8700D"/>
<stop offset="1" stop-color="#432400"/>
</linearGradient>
<linearGradient id="paint21_linear_30_5568" x1="116.595" y1="81.8755" x2="160.587" y2="121.392" gradientUnits="userSpaceOnUse">
<stop stop-color="#D7AC4C"/>
<stop offset="0.18" stop-color="#FFFFB0"/>
<stop offset="0.33" stop-color="#F4D174"/>
<stop offset="0.43" stop-color="#DEB04D"/>
<stop offset="0.71" stop-color="#F6DF86"/>
<stop offset="0.85" stop-color="#D7AC4C"/>
<stop offset="1" stop-color="#966424"/>
</linearGradient>
<radialGradient id="paint22_radial_30_5568" cx="0" cy="0" r="1" gradientUnits="userSpaceOnUse" gradientTransform="translate(136.975 51.997) rotate(2.01) scale(10.3666 10.8274)">
<stop stop-color="white"/>
<stop offset="0.14" stop-color="#FFF4E1" stop-opacity="0.82"/>
<stop offset="0.38" stop-color="#FFE3B1" stop-opacity="0.53"/>
<stop offset="0.59" stop-color="#FFD68C" stop-opacity="0.3"/>
<stop offset="0.77" stop-color="#FFCD71" stop-opacity="0.14"/>
<stop offset="0.92" stop-color="#FFC761" stop-opacity="0.04"/>
<stop offset="1" stop-color="#FFC55B" stop-opacity="0"/>
</radialGradient>
<radialGradient id="paint23_radial_30_5568" cx="0" cy="0" r="1" gradientUnits="userSpaceOnUse" gradientTransform="translate(146.766 56.8531) rotate(92.05) scale(20.8978 4.01501)">
<stop stop-color="white"/>
<stop offset="0.14" stop-color="#FFF4E1" stop-opacity="0.82"/>
<stop offset="0.38" stop-color="#FFE3B1" stop-opacity="0.53"/>
<stop offset="0.59" stop-color="#FFD68C" stop-opacity="0.3"/>
<stop offset="0.77" stop-color="#FFCD71" stop-opacity="0.14"/>
<stop offset="0.92" stop-color="#FFC761" stop-opacity="0.04"/>
<stop offset="1" stop-color="#FFC55B" stop-opacity="0"/>
</radialGradient>
<radialGradient id="paint24_radial_30_5568" cx="0" cy="0" r="1" gradientUnits="userSpaceOnUse" gradientTransform="translate(142.986 55.7509) rotate(2.01) scale(20.7991 4.01501)">
<stop stop-color="white"/>
<stop offset="0.14" stop-color="#FFF4E1" stop-opacity="0.82"/>
<stop offset="0.38" stop-color="#FFE3B1" stop-opacity="0.53"/>
<stop offset="0.59" stop-color="#FFD68C" stop-opacity="0.3"/>
<stop offset="0.77" stop-color="#FFCD71" stop-opacity="0.14"/>
<stop offset="0.92" stop-color="#FFC761" stop-opacity="0.04"/>
<stop offset="1" stop-color="#FFC55B" stop-opacity="0"/>
</radialGradient>
<radialGradient id="paint25_radial_30_5568" cx="0" cy="0" r="1" gradientUnits="userSpaceOnUse" gradientTransform="translate(140.029 54.1797) rotate(2.01) scale(19.7838 2.09965)">
<stop stop-color="white"/>
<stop offset="0.04" stop-color="#FFFBF4" stop-opacity="0.94"/>
<stop offset="0.19" stop-color="#FFEDCC" stop-opacity="0.69"/>
<stop offset="0.35" stop-color="#FFE0A9" stop-opacity="0.48"/>
<stop offset="0.5" stop-color="#FFD68D" stop-opacity="0.31"/>
<stop offset="0.64" stop-color="#FFCF77" stop-opacity="0.17"/>
<stop offset="0.77" stop-color="#FFC967" stop-opacity="0.08"/>
<stop offset="0.9" stop-color="#FFC65E" stop-opacity="0.02"/>
<stop offset="1" stop-color="#FFC55B" stop-opacity="0"/>
</radialGradient>
<radialGradient id="paint26_radial_30_5568" cx="0" cy="0" r="1" gradientUnits="userSpaceOnUse" gradientTransform="translate(134.733 59.5566) rotate(2.01) scale(9.80922 8.85927)">
<stop stop-color="white"/>
<stop offset="0.04" stop-color="#FFFBF4" stop-opacity="0.94"/>
<stop offset="0.19" stop-color="#FFEDCC" stop-opacity="0.69"/>
<stop offset="0.35" stop-color="#FFE0A9" stop-opacity="0.48"/>
<stop offset="0.5" stop-color="#FFD68D" stop-opacity="0.31"/>
<stop offset="0.64" stop-color="#FFCF77" stop-opacity="0.17"/>
<stop offset="0.77" stop-color="#FFC967" stop-opacity="0.08"/>
<stop offset="0.9" stop-color="#FFC65E" stop-opacity="0.02"/>
<stop offset="1" stop-color="#FFC55B" stop-opacity="0"/>
</radialGradient>
<radialGradient id="paint27_radial_30_5568" cx="0" cy="0" r="1" gradientUnits="userSpaceOnUse" gradientTransform="translate(135.851 56.2718) rotate(92.05) scale(19.8562 2.09965)">
<stop stop-color="white"/>
<stop offset="0.06" stop-color="#FFF7E9" stop-opacity="0.87"/>
<stop offset="0.16" stop-color="#FFEBC8" stop-opacity="0.67"/>
<stop offset="0.26" stop-color="#FFE1AB" stop-opacity="0.49"/>
<stop offset="0.37" stop-color="#FFD892" stop-opacity="0.34"/>
<stop offset="0.48" stop-color="#FFD17E" stop-opacity="0.22"/>
<stop offset="0.59" stop-color="#FFCB6E" stop-opacity="0.12"/>
<stop offset="0.71" stop-color="#FFC863" stop-opacity="0.05"/>
<stop offset="0.84" stop-color="#FFC55D" stop-opacity="0.01"/>
<stop offset="1" stop-color="#FFC55B" stop-opacity="0"/>
</radialGradient>
<radialGradient id="paint28_radial_30_5568" cx="0" cy="0" r="1" gradientUnits="userSpaceOnUse" gradientTransform="translate(88.9501 99.3772) rotate(2.01) scale(5.3129 5.54903)">
<stop stop-color="white"/>
<stop offset="0.14" stop-color="#FFF4E1" stop-opacity="0.82"/>
<stop offset="0.38" stop-color="#FFE3B1" stop-opacity="0.53"/>
<stop offset="0.59" stop-color="#FFD68C" stop-opacity="0.3"/>
<stop offset="0.77" stop-color="#FFCD71" stop-opacity="0.14"/>
<stop offset="0.92" stop-color="#FFC761" stop-opacity="0.04"/>
<stop offset="1" stop-color="#FFC55B" stop-opacity="0"/>
</radialGradient>
<radialGradient id="paint29_radial_30_5568" cx="0" cy="0" r="1" gradientUnits="userSpaceOnUse" gradientTransform="translate(98.4471 104.212) rotate(92.05) scale(10.7101 2.05769)">
<stop stop-color="white"/>
<stop offset="0.14" stop-color="#FFF4E1" stop-opacity="0.82"/>
<stop offset="0.38" stop-color="#FFE3B1" stop-opacity="0.53"/>
<stop offset="0.59" stop-color="#FFD68C" stop-opacity="0.3"/>
<stop offset="0.77" stop-color="#FFCD71" stop-opacity="0.14"/>
<stop offset="0.92" stop-color="#FFC761" stop-opacity="0.04"/>
<stop offset="1" stop-color="#FFC55B" stop-opacity="0"/>
</radialGradient>
<radialGradient id="paint30_radial_30_5568" cx="0" cy="0" r="1" gradientUnits="userSpaceOnUse" gradientTransform="translate(94.8628 103.085) rotate(2.01) scale(10.6595 2.05769)">
<stop stop-color="white"/>
<stop offset="0.14" stop-color="#FFF4E1" stop-opacity="0.82"/>
<stop offset="0.38" stop-color="#FFE3B1" stop-opacity="0.53"/>
<stop offset="0.59" stop-color="#FFD68C" stop-opacity="0.3"/>
<stop offset="0.77" stop-color="#FFCD71" stop-opacity="0.14"/>
<stop offset="0.92" stop-color="#FFC761" stop-opacity="0.04"/>
<stop offset="1" stop-color="#FFC55B" stop-opacity="0"/>
</radialGradient>
<radialGradient id="paint31_radial_30_5568" cx="0" cy="0" r="1" gradientUnits="userSpaceOnUse" gradientTransform="translate(91.8516 101.383) rotate(2.01) scale(10.1617 1.07846)">
<stop stop-color="white"/>
<stop offset="0.04" stop-color="#FFFBF4" stop-opacity="0.94"/>
<stop offset="0.19" stop-color="#FFEDCC" stop-opacity="0.69"/>
<stop offset="0.35" stop-color="#FFE0A9" stop-opacity="0.48"/>
<stop offset="0.5" stop-color="#FFD68D" stop-opacity="0.31"/>
<stop offset="0.64" stop-color="#FFCF77" stop-opacity="0.17"/>
<stop offset="0.77" stop-color="#FFC967" stop-opacity="0.08"/>
<stop offset="0.9" stop-color="#FFC65E" stop-opacity="0.02"/>
<stop offset="1" stop-color="#FFC55B" stop-opacity="0"/>
</radialGradient>
<radialGradient id="paint32_radial_30_5568" cx="0" cy="0" r="1" gradientUnits="userSpaceOnUse" gradientTransform="translate(86.5365 106.921) rotate(2.01) scale(5.04139 4.55317)">
<stop stop-color="white"/>
<stop offset="0.04" stop-color="#FFFBF4" stop-opacity="0.94"/>
<stop offset="0.19" stop-color="#FFEDCC" stop-opacity="0.69"/>
<stop offset="0.35" stop-color="#FFE0A9" stop-opacity="0.48"/>
<stop offset="0.5" stop-color="#FFD68D" stop-opacity="0.31"/>
<stop offset="0.64" stop-color="#FFCF77" stop-opacity="0.17"/>
<stop offset="0.77" stop-color="#FFC967" stop-opacity="0.08"/>
<stop offset="0.9" stop-color="#FFC65E" stop-opacity="0.02"/>
<stop offset="1" stop-color="#FFC55B" stop-opacity="0"/>
</radialGradient>
<radialGradient id="paint33_radial_30_5568" cx="0" cy="0" r="1" gradientUnits="userSpaceOnUse" gradientTransform="translate(87.6644 103.678) rotate(92.05) scale(10.1989 1.07846)">
<stop stop-color="white"/>
<stop offset="0.06" stop-color="#FFF7E9" stop-opacity="0.87"/>
<stop offset="0.16" stop-color="#FFEBC8" stop-opacity="0.67"/>
<stop offset="0.26" stop-color="#FFE1AB" stop-opacity="0.49"/>
<stop offset="0.37" stop-color="#FFD892" stop-opacity="0.34"/>
<stop offset="0.48" stop-color="#FFD17E" stop-opacity="0.22"/>
<stop offset="0.59" stop-color="#FFCB6E" stop-opacity="0.12"/>
<stop offset="0.71" stop-color="#FFC863" stop-opacity="0.05"/>
<stop offset="0.84" stop-color="#FFC55D" stop-opacity="0.01"/>
<stop offset="1" stop-color="#FFC55B" stop-opacity="0"/>
</radialGradient>
<radialGradient id="paint34_radial_30_5568" cx="0" cy="0" r="1" gradientUnits="userSpaceOnUse" gradientTransform="translate(121.91 85.3392) rotate(2.01) scale(5.3129 5.54903)">
<stop stop-color="white"/>
<stop offset="0.14" stop-color="#FFF4E1" stop-opacity="0.82"/>
<stop offset="0.38" stop-color="#FFE3B1" stop-opacity="0.53"/>
<stop offset="0.59" stop-color="#FFD68C" stop-opacity="0.3"/>
<stop offset="0.77" stop-color="#FFCD71" stop-opacity="0.14"/>
<stop offset="0.92" stop-color="#FFC761" stop-opacity="0.04"/>
<stop offset="1" stop-color="#FFC55B" stop-opacity="0"/>
</radialGradient>
<radialGradient id="paint35_radial_30_5568" cx="0" cy="0" r="1" gradientUnits="userSpaceOnUse" gradientTransform="translate(131.5 90.2349) rotate(92.05) scale(10.7101 2.05769)">
<stop stop-color="white"/>
<stop offset="0.14" stop-color="#FFF4E1" stop-opacity="0.82"/>
<stop offset="0.38" stop-color="#FFE3B1" stop-opacity="0.53"/>
<stop offset="0.59" stop-color="#FFD68C" stop-opacity="0.3"/>
<stop offset="0.77" stop-color="#FFCD71" stop-opacity="0.14"/>
<stop offset="0.92" stop-color="#FFC761" stop-opacity="0.04"/>
<stop offset="1" stop-color="#FFC55B" stop-opacity="0"/>
</radialGradient>
<radialGradient id="paint36_radial_30_5568" cx="0" cy="0" r="1" gradientUnits="userSpaceOnUse" gradientTransform="translate(127.821 89.0762) rotate(2.01) scale(10.6595 2.05769)">
<stop stop-color="white"/>
<stop offset="0.14" stop-color="#FFF4E1" stop-opacity="0.82"/>
<stop offset="0.38" stop-color="#FFE3B1" stop-opacity="0.53"/>
<stop offset="0.59" stop-color="#FFD68C" stop-opacity="0.3"/>
<stop offset="0.77" stop-color="#FFCD71" stop-opacity="0.14"/>
<stop offset="0.92" stop-color="#FFC761" stop-opacity="0.04"/>
<stop offset="1" stop-color="#FFC55B" stop-opacity="0"/>
</radialGradient>
<radialGradient id="paint37_radial_30_5568" cx="0" cy="0" r="1" gradientUnits="userSpaceOnUse" gradientTransform="translate(124.826 87.4143) rotate(2.01) scale(10.1617 1.07846)">
<stop stop-color="white"/>
<stop offset="0.04" stop-color="#FFFBF4" stop-opacity="0.94"/>
<stop offset="0.19" stop-color="#FFEDCC" stop-opacity="0.69"/>
<stop offset="0.35" stop-color="#FFE0A9" stop-opacity="0.48"/>
<stop offset="0.5" stop-color="#FFD68D" stop-opacity="0.31"/>
<stop offset="0.64" stop-color="#FFCF77" stop-opacity="0.17"/>
<stop offset="0.77" stop-color="#FFC967" stop-opacity="0.08"/>
<stop offset="0.9" stop-color="#FFC65E" stop-opacity="0.02"/>
<stop offset="1" stop-color="#FFC55B" stop-opacity="0"/>
</radialGradient>
<radialGradient id="paint38_radial_30_5568" cx="0" cy="0" r="1" gradientUnits="userSpaceOnUse" gradientTransform="translate(119.525 92.8923) rotate(2.01) scale(5.04139 4.55317)">
<stop stop-color="white"/>
<stop offset="0.04" stop-color="#FFFBF4" stop-opacity="0.94"/>
<stop offset="0.19" stop-color="#FFEDCC" stop-opacity="0.69"/>
<stop offset="0.35" stop-color="#FFE0A9" stop-opacity="0.48"/>
<stop offset="0.5" stop-color="#FFD68D" stop-opacity="0.31"/>
<stop offset="0.64" stop-color="#FFCF77" stop-opacity="0.17"/>
<stop offset="0.77" stop-color="#FFC967" stop-opacity="0.08"/>
<stop offset="0.9" stop-color="#FFC65E" stop-opacity="0.02"/>
<stop offset="1" stop-color="#FFC55B" stop-opacity="0"/>
</radialGradient>
<radialGradient id="paint39_radial_30_5568" cx="0" cy="0" r="1" gradientUnits="userSpaceOnUse" gradientTransform="translate(120.626 89.6848) rotate(92.05) scale(10.1989 1.07846)">
<stop stop-color="white"/>
<stop offset="0.06" stop-color="#FFF7E9" stop-opacity="0.87"/>
<stop offset="0.16" stop-color="#FFEBC8" stop-opacity="0.67"/>
<stop offset="0.26" stop-color="#FFE1AB" stop-opacity="0.49"/>
<stop offset="0.37" stop-color="#FFD892" stop-opacity="0.34"/>
<stop offset="0.48" stop-color="#FFD17E" stop-opacity="0.22"/>
<stop offset="0.59" stop-color="#FFCB6E" stop-opacity="0.12"/>
<stop offset="0.71" stop-color="#FFC863" stop-opacity="0.05"/>
<stop offset="0.84" stop-color="#FFC55D" stop-opacity="0.01"/>
<stop offset="1" stop-color="#FFC55B" stop-opacity="0"/>
</radialGradient>
<linearGradient id="paint40_linear_30_5568" x1="255.027" y1="12.3453" x2="141.795" y2="82.2697" gradientUnits="userSpaceOnUse">
<stop stop-color="#B57E10"/>
<stop offset="0.1507" stop-color="#B57E10"/>
<stop offset="0.4638" stop-color="#E5C35C"/>
<stop offset="0.6129" stop-color="#F9DF7B"/>
<stop offset="0.7204" stop-color="#FFF3A6"/>
<stop offset="0.8387" stop-color="#F9DF7B"/>
<stop offset="1" stop-color="#B57E10"/>
</linearGradient>
<linearGradient id="paint41_linear_30_5568" x1="52.5844" y1="112.711" x2="28.2037" y2="115.089" gradientUnits="userSpaceOnUse">
<stop stop-color="#B57E10"/>
<stop offset="0.1507" stop-color="#B57E10"/>
<stop offset="0.4638" stop-color="#E5C35C"/>
<stop offset="0.6129" stop-color="#F9DF7B"/>
<stop offset="0.7204" stop-color="#FFF3A6"/>
<stop offset="0.8387" stop-color="#F9DF7B"/>
<stop offset="1" stop-color="#B57E10"/>
</linearGradient>
<linearGradient id="paint42_linear_30_5568" x1="167.803" y1="163.35" x2="54.3677" y2="233.282" gradientUnits="userSpaceOnUse">
<stop stop-color="#B57E10"/>
<stop offset="0.1507" stop-color="#B57E10"/>
<stop offset="0.4638" stop-color="#E5C35C"/>
<stop offset="0.6129" stop-color="#F9DF7B"/>
<stop offset="0.7204" stop-color="#FFF3A6"/>
<stop offset="0.8387" stop-color="#F9DF7B"/>
<stop offset="1" stop-color="#B57E10"/>
</linearGradient>
<linearGradient id="paint43_linear_30_5568" x1="255.863" y1="163.192" x2="140.994" y2="233.17" gradientUnits="userSpaceOnUse">
<stop stop-color="#B57E10"/>
<stop offset="0.1507" stop-color="#B57E10"/>
<stop offset="0.4638" stop-color="#E5C35C"/>
<stop offset="0.6129" stop-color="#F9DF7B"/>
<stop offset="0.7204" stop-color="#FFF3A6"/>
<stop offset="0.8387" stop-color="#F9DF7B"/>
<stop offset="1" stop-color="#B57E10"/>
</linearGradient>
<linearGradient id="paint44_linear_30_5568" x1="167.793" y1="12.2933" x2="54.3981" y2="82.2226" gradientUnits="userSpaceOnUse">
<stop stop-color="#B57E10"/>
<stop offset="0.1507" stop-color="#B57E10"/>
<stop offset="0.4638" stop-color="#E5C35C"/>
<stop offset="0.6129" stop-color="#F9DF7B"/>
<stop offset="0.7204" stop-color="#FFF3A6"/>
<stop offset="0.8387" stop-color="#F9DF7B"/>
<stop offset="1" stop-color="#B57E10"/>
</linearGradient>
<linearGradient id="paint45_linear_30_5568" x1="134.787" y1="1.42756" x2="134.477" y2="1.43029" gradientUnits="userSpaceOnUse">
<stop stop-color="#B57E10"/>
<stop offset="0.1507" stop-color="#B57E10"/>
<stop offset="0.4638" stop-color="#E5C35C"/>
<stop offset="0.6129" stop-color="#F9DF7B"/>
<stop offset="0.7204" stop-color="#FFF3A6"/>
<stop offset="0.8387" stop-color="#F9DF7B"/>
<stop offset="1" stop-color="#B57E10"/>
</linearGradient>
<linearGradient id="paint46_linear_30_5568" x1="49.069" y1="54.0583" x2="46.154" y2="55.0992" gradientUnits="userSpaceOnUse">
<stop stop-color="#B57E10"/>
<stop offset="0.1507" stop-color="#B57E10"/>
<stop offset="0.4638" stop-color="#E5C35C"/>
<stop offset="0.6129" stop-color="#F9DF7B"/>
<stop offset="0.7204" stop-color="#FFF3A6"/>
<stop offset="0.8387" stop-color="#F9DF7B"/>
<stop offset="1" stop-color="#B57E10"/>
</linearGradient>
<linearGradient id="paint47_linear_30_5568" x1="227.129" y1="55.0752" x2="219.532" y2="57.788" gradientUnits="userSpaceOnUse">
<stop stop-color="#B57E10"/>
<stop offset="0.1507" stop-color="#B57E10"/>
<stop offset="0.4638" stop-color="#E5C35C"/>
<stop offset="0.6129" stop-color="#F9DF7B"/>
<stop offset="0.7204" stop-color="#FFF3A6"/>
<stop offset="0.8387" stop-color="#F9DF7B"/>
<stop offset="1" stop-color="#B57E10"/>
</linearGradient>
<linearGradient id="paint48_linear_30_5568" x1="189.253" y1="18.0994" x2="185.05" y2="19.6002" gradientUnits="userSpaceOnUse">
<stop stop-color="#B57E10"/>
<stop offset="0.1507" stop-color="#B57E10"/>
<stop offset="0.4638" stop-color="#E5C35C"/>
<stop offset="0.6129" stop-color="#F9DF7B"/>
<stop offset="0.7204" stop-color="#FFF3A6"/>
<stop offset="0.8387" stop-color="#F9DF7B"/>
<stop offset="1" stop-color="#B57E10"/>
</linearGradient>
<linearGradient id="paint49_linear_30_5568" x1="134.787" y1="206.734" x2="134.477" y2="206.737" gradientUnits="userSpaceOnUse">
<stop stop-color="#B57E10"/>
<stop offset="0.1507" stop-color="#B57E10"/>
<stop offset="0.4638" stop-color="#E5C35C"/>
<stop offset="0.6129" stop-color="#F9DF7B"/>
<stop offset="0.7204" stop-color="#FFF3A6"/>
<stop offset="0.8387" stop-color="#F9DF7B"/>
<stop offset="1" stop-color="#B57E10"/>
</linearGradient>
<linearGradient id="paint50_linear_30_5568" x1="136.975" y1="212.684" x2="132.742" y2="214.196" gradientUnits="userSpaceOnUse">
<stop stop-color="#B57E10"/>
<stop offset="0.1507" stop-color="#B57E10"/>
<stop offset="0.4638" stop-color="#E5C35C"/>
<stop offset="0.6129" stop-color="#F9DF7B"/>
<stop offset="0.7204" stop-color="#FFF3A6"/>
<stop offset="0.8387" stop-color="#F9DF7B"/>
<stop offset="1" stop-color="#B57E10"/>
</linearGradient>
<linearGradient id="paint51_linear_30_5568" x1="225.065" y1="153.309" x2="220.183" y2="155.052" gradientUnits="userSpaceOnUse">
<stop stop-color="#B57E10"/>
<stop offset="0.1507" stop-color="#B57E10"/>
<stop offset="0.4638" stop-color="#E5C35C"/>
<stop offset="0.6129" stop-color="#F9DF7B"/>
<stop offset="0.7204" stop-color="#FFF3A6"/>
<stop offset="0.8387" stop-color="#F9DF7B"/>
<stop offset="1" stop-color="#B57E10"/>
</linearGradient>
<linearGradient id="paint52_linear_30_5568" x1="49.627" y1="154.507" x2="45.7036" y2="155.908" gradientUnits="userSpaceOnUse">
<stop stop-color="#B57E10"/>
<stop offset="0.1507" stop-color="#B57E10"/>
<stop offset="0.4638" stop-color="#E5C35C"/>
<stop offset="0.6129" stop-color="#F9DF7B"/>
<stop offset="0.7204" stop-color="#FFF3A6"/>
<stop offset="0.8387" stop-color="#F9DF7B"/>
<stop offset="1" stop-color="#B57E10"/>
</linearGradient>
<linearGradient id="paint53_linear_30_5568" x1="37.2966" y1="101.161" x2="31.0084" y2="103.03" gradientUnits="userSpaceOnUse">
<stop stop-color="#B57E10"/>
<stop offset="0.1507" stop-color="#B57E10"/>
<stop offset="0.4638" stop-color="#E5C35C"/>
<stop offset="0.6129" stop-color="#F9DF7B"/>
<stop offset="0.7204" stop-color="#FFF3A6"/>
<stop offset="0.8387" stop-color="#F9DF7B"/>
<stop offset="1" stop-color="#B57E10"/>
</linearGradient>
<linearGradient id="paint54_linear_30_5568" x1="165.028" y1="19.4934" x2="59.9486" y2="83.8476" gradientUnits="userSpaceOnUse">
<stop stop-color="#B57E10"/>
<stop offset="0.1507" stop-color="#B57E10"/>
<stop offset="0.4638" stop-color="#E5C35C"/>
<stop offset="0.6129" stop-color="#F9DF7B"/>
<stop offset="0.7204" stop-color="#FFF3A6"/>
<stop offset="0.8387" stop-color="#F9DF7B"/>
<stop offset="1" stop-color="#B57E10"/>
</linearGradient>
<linearGradient id="paint55_linear_30_5568" x1="59.5334" y1="73.083" x2="36.1448" y2="74.2724" gradientUnits="userSpaceOnUse">
<stop stop-color="#B57E10"/>
<stop offset="0.1507" stop-color="#B57E10"/>
<stop offset="0.4638" stop-color="#E5C35C"/>
<stop offset="0.6129" stop-color="#F9DF7B"/>
<stop offset="0.7204" stop-color="#FFF3A6"/>
<stop offset="0.8387" stop-color="#F9DF7B"/>
<stop offset="1" stop-color="#B57E10"/>
</linearGradient>
<linearGradient id="paint56_linear_30_5568" x1="245.018" y1="19.6287" x2="140.852" y2="82.3188" gradientUnits="userSpaceOnUse">
<stop stop-color="#B57E10"/>
<stop offset="0.1507" stop-color="#B57E10"/>
<stop offset="0.4638" stop-color="#E5C35C"/>
<stop offset="0.6129" stop-color="#F9DF7B"/>
<stop offset="0.7204" stop-color="#FFF3A6"/>
<stop offset="0.8387" stop-color="#F9DF7B"/>
<stop offset="1" stop-color="#B57E10"/>
</linearGradient>
<linearGradient id="paint57_linear_30_5568" x1="232.295" y1="73.4319" x2="208.986" y2="74.5991" gradientUnits="userSpaceOnUse">
<stop stop-color="#B57E10"/>
<stop offset="0.1507" stop-color="#B57E10"/>
<stop offset="0.4638" stop-color="#E5C35C"/>
<stop offset="0.6129" stop-color="#F9DF7B"/>
<stop offset="0.7204" stop-color="#FFF3A6"/>
<stop offset="0.8387" stop-color="#F9DF7B"/>
<stop offset="1" stop-color="#B57E10"/>
</linearGradient>
<linearGradient id="paint58_linear_30_5568" x1="137.043" y1="11.4296" x2="132.291" y2="13.1264" gradientUnits="userSpaceOnUse">
<stop stop-color="#B57E10"/>
<stop offset="0.1507" stop-color="#B57E10"/>
<stop offset="0.4638" stop-color="#E5C35C"/>
<stop offset="0.6129" stop-color="#F9DF7B"/>
<stop offset="0.7204" stop-color="#FFF3A6"/>
<stop offset="0.8387" stop-color="#F9DF7B"/>
<stop offset="1" stop-color="#B57E10"/>
</linearGradient>
<linearGradient id="paint59_linear_30_5568" x1="57.2285" y1="57.5708" x2="51.7878" y2="59.5135" gradientUnits="userSpaceOnUse">
<stop stop-color="#B57E10"/>
<stop offset="0.1507" stop-color="#B57E10"/>
<stop offset="0.4638" stop-color="#E5C35C"/>
<stop offset="0.6129" stop-color="#F9DF7B"/>
<stop offset="0.7204" stop-color="#FFF3A6"/>
<stop offset="0.8387" stop-color="#F9DF7B"/>
<stop offset="1" stop-color="#B57E10"/>
</linearGradient>
<linearGradient id="paint60_linear_30_5568" x1="216.241" y1="151.401" x2="212.418" y2="152.767" gradientUnits="userSpaceOnUse">
<stop stop-color="#B57E10"/>
<stop offset="0.1507" stop-color="#B57E10"/>
<stop offset="0.4638" stop-color="#E5C35C"/>
<stop offset="0.6129" stop-color="#F9DF7B"/>
<stop offset="0.7204" stop-color="#FFF3A6"/>
<stop offset="0.8387" stop-color="#F9DF7B"/>
<stop offset="1" stop-color="#B57E10"/>
</linearGradient>
<linearGradient id="paint61_linear_30_5568" x1="218.949" y1="146.562" x2="214.986" y2="147.977" gradientUnits="userSpaceOnUse">
<stop stop-color="#B57E10"/>
<stop offset="0.1507" stop-color="#B57E10"/>
<stop offset="0.4638" stop-color="#E5C35C"/>
<stop offset="0.6129" stop-color="#F9DF7B"/>
<stop offset="0.7204" stop-color="#FFF3A6"/>
<stop offset="0.8387" stop-color="#F9DF7B"/>
<stop offset="1" stop-color="#B57E10"/>
</linearGradient>
<linearGradient id="paint62_linear_30_5568" x1="223.473" y1="135.649" x2="219.979" y2="136.896" gradientUnits="userSpaceOnUse">
<stop stop-color="#B57E10"/>
<stop offset="0.1507" stop-color="#B57E10"/>
<stop offset="0.4638" stop-color="#E5C35C"/>
<stop offset="0.6129" stop-color="#F9DF7B"/>
<stop offset="0.7204" stop-color="#FFF3A6"/>
<stop offset="0.8387" stop-color="#F9DF7B"/>
<stop offset="1" stop-color="#B57E10"/>
</linearGradient>
<linearGradient id="paint63_linear_30_5568" x1="56.4135" y1="151.342" x2="53.2688" y2="152.465" gradientUnits="userSpaceOnUse">
<stop stop-color="#B57E10"/>
<stop offset="0.1507" stop-color="#B57E10"/>
<stop offset="0.4638" stop-color="#E5C35C"/>
<stop offset="0.6129" stop-color="#F9DF7B"/>
<stop offset="0.7204" stop-color="#FFF3A6"/>
<stop offset="0.8387" stop-color="#F9DF7B"/>
<stop offset="1" stop-color="#B57E10"/>
</linearGradient>
<linearGradient id="paint64_linear_30_5568" x1="288.323" y1="37.8166" x2="271.939" y2="73.6732" gradientUnits="userSpaceOnUse">
<stop stop-color="#B57E10"/>
<stop offset="0.1507" stop-color="#B57E10"/>
<stop offset="0.4638" stop-color="#E5C35C"/>
<stop offset="0.6129" stop-color="#F9DF7B"/>
<stop offset="0.7204" stop-color="#FFF3A6"/>
<stop offset="0.8387" stop-color="#F9DF7B"/>
<stop offset="1" stop-color="#B57E10"/>
</linearGradient>
<linearGradient id="paint65_linear_30_5568" x1="285.064" y1="136.91" x2="279.21" y2="158.116" gradientUnits="userSpaceOnUse">
<stop stop-color="#B57E10"/>
<stop offset="0.1507" stop-color="#B57E10"/>
<stop offset="0.4638" stop-color="#E5C35C"/>
<stop offset="0.6129" stop-color="#F9DF7B"/>
<stop offset="0.7204" stop-color="#FFF3A6"/>
<stop offset="0.8387" stop-color="#F9DF7B"/>
<stop offset="1" stop-color="#B57E10"/>
</linearGradient>
<linearGradient id="paint66_linear_30_5568" x1="53.6975" y1="70.2681" x2="53.6866" y2="71.1348" gradientUnits="userSpaceOnUse">
<stop stop-color="#B57E10"/>
<stop offset="0.1507" stop-color="#B57E10"/>
<stop offset="0.4638" stop-color="#E5C35C"/>
<stop offset="0.6129" stop-color="#F9DF7B"/>
<stop offset="0.7204" stop-color="#FFF3A6"/>
<stop offset="0.8387" stop-color="#F9DF7B"/>
<stop offset="1" stop-color="#B57E10"/>
</linearGradient>
<linearGradient id="paint67_linear_30_5568" x1="86.2781" y1="179.376" x2="79.6806" y2="205.632" gradientUnits="userSpaceOnUse">
<stop stop-color="#B57E10"/>
<stop offset="0.1507" stop-color="#B57E10"/>
<stop offset="0.4638" stop-color="#E5C35C"/>
<stop offset="0.6129" stop-color="#F9DF7B"/>
<stop offset="0.7204" stop-color="#FFF3A6"/>
<stop offset="0.8387" stop-color="#F9DF7B"/>
<stop offset="1" stop-color="#B57E10"/>
</linearGradient>
<linearGradient id="paint68_linear_30_5568" x1="228.397" y1="109.551" x2="225.542" y2="110.571" gradientUnits="userSpaceOnUse">
<stop stop-color="#B57E10"/>
<stop offset="0.1507" stop-color="#B57E10"/>
<stop offset="0.4638" stop-color="#E5C35C"/>
<stop offset="0.6129" stop-color="#F9DF7B"/>
<stop offset="0.7204" stop-color="#FFF3A6"/>
<stop offset="0.8387" stop-color="#F9DF7B"/>
<stop offset="1" stop-color="#B57E10"/>
</linearGradient>
<linearGradient id="paint69_linear_30_5568" x1="43.7289" y1="66.7687" x2="35.2084" y2="68.0081" gradientUnits="userSpaceOnUse">
<stop stop-color="#B57E10"/>
<stop offset="0.1507" stop-color="#B57E10"/>
<stop offset="0.4638" stop-color="#E5C35C"/>
<stop offset="0.6129" stop-color="#F9DF7B"/>
<stop offset="0.7204" stop-color="#FFF3A6"/>
<stop offset="0.8387" stop-color="#F9DF7B"/>
<stop offset="1" stop-color="#B57E10"/>
</linearGradient>
<linearGradient id="paint70_linear_30_5568" x1="40.0939" y1="69.9782" x2="38.3669" y2="70.5949" gradientUnits="userSpaceOnUse">
<stop stop-color="#B57E10"/>
<stop offset="0.1507" stop-color="#B57E10"/>
<stop offset="0.4638" stop-color="#E5C35C"/>
<stop offset="0.6129" stop-color="#F9DF7B"/>
<stop offset="0.7204" stop-color="#FFF3A6"/>
<stop offset="0.8387" stop-color="#F9DF7B"/>
<stop offset="1" stop-color="#B57E10"/>
</linearGradient>
<linearGradient id="paint71_linear_30_5568" x1="63.6625" y1="183.443" x2="61.4862" y2="184.221" gradientUnits="userSpaceOnUse">
<stop stop-color="#B57E10"/>
<stop offset="0.1507" stop-color="#B57E10"/>
<stop offset="0.4638" stop-color="#E5C35C"/>
<stop offset="0.6129" stop-color="#F9DF7B"/>
<stop offset="0.7204" stop-color="#FFF3A6"/>
<stop offset="0.8387" stop-color="#F9DF7B"/>
<stop offset="1" stop-color="#B57E10"/>
</linearGradient>
<linearGradient id="paint72_linear_30_5568" x1="57.598" y1="178.256" x2="56.2103" y2="178.751" gradientUnits="userSpaceOnUse">
<stop stop-color="#B57E10"/>
<stop offset="0.1507" stop-color="#B57E10"/>
<stop offset="0.4638" stop-color="#E5C35C"/>
<stop offset="0.6129" stop-color="#F9DF7B"/>
<stop offset="0.7204" stop-color="#FFF3A6"/>
<stop offset="0.8387" stop-color="#F9DF7B"/>
<stop offset="1" stop-color="#B57E10"/>
</linearGradient>
<linearGradient id="paint73_linear_30_5568" x1="226.303" y1="36.1564" x2="224.367" y2="36.848" gradientUnits="userSpaceOnUse">
<stop stop-color="#B57E10"/>
<stop offset="0.1507" stop-color="#B57E10"/>
<stop offset="0.4638" stop-color="#E5C35C"/>
<stop offset="0.6129" stop-color="#F9DF7B"/>
<stop offset="0.7204" stop-color="#FFF3A6"/>
<stop offset="0.8387" stop-color="#F9DF7B"/>
<stop offset="1" stop-color="#B57E10"/>
</linearGradient>
<linearGradient id="paint74_linear_30_5568" x1="216.407" y1="44.5624" x2="214.64" y2="45.1934" gradientUnits="userSpaceOnUse">
<stop stop-color="#B57E10"/>
<stop offset="0.1507" stop-color="#B57E10"/>
<stop offset="0.4638" stop-color="#E5C35C"/>
<stop offset="0.6129" stop-color="#F9DF7B"/>
<stop offset="0.7204" stop-color="#FFF3A6"/>
<stop offset="0.8387" stop-color="#F9DF7B"/>
<stop offset="1" stop-color="#B57E10"/>
</linearGradient>
</defs>
</svg>
