<svg width="114" height="123" viewBox="0 0 114 123" fill="none" xmlns="http://www.w3.org/2000/svg">
<path d="M101.036 89.373C96.1018 97.8615 87.1994 103.915 75.4324 105.571C63.6654 107.226 51.3222 104.151 40.8292 97.8372C30.3363 91.5154 21.7423 81.9963 17.4981 70.7C13.2457 59.4118 14.1709 48.5536 19.0968 40.057C24.0227 31.5767 32.9251 25.5227 44.6921 23.8672C56.4591 22.2117 68.7942 25.2874 79.2952 31.601C89.7882 37.9228 98.3822 47.45 102.635 58.7382C106.879 70.0345 105.954 80.8845 101.036 89.373Z" fill="url(#paint0_linear_2_1159)"/>
<mask id="mask0_2_1159" style="mask-type:luminance" maskUnits="userSpaceOnUse" x="18" y="23" width="88" height="69">
<path d="M18.48 40.9497L19.7946 38.9046C24.8423 31.0248 33.4606 25.4415 44.6839 23.8591C56.4509 22.2036 68.7941 25.2792 79.2871 31.5928C89.78 37.9146 98.374 47.4418 102.626 58.73C106.871 70.0264 105.945 80.8764 101.028 89.3649L99.713 91.4099C104.639 82.9214 105.556 72.0633 101.312 60.7751C97.0593 49.4868 88.4654 39.9596 77.9724 33.6379C67.4714 27.3243 55.1282 24.2486 43.3693 25.9041C32.146 27.4784 23.5195 33.0698 18.48 40.9497Z" fill="white"/>
</mask>
<g mask="url(#mask0_2_1159)">
<path d="M101.036 89.373L99.7212 91.4181C104.647 82.9296 105.564 72.0715 101.32 60.7832C97.0675 49.495 88.4735 39.9678 77.9806 33.646C67.4795 27.3324 55.1363 24.2568 43.3774 25.9123C32.1541 27.4866 23.5277 33.078 18.4882 40.9578L19.8028 38.9128C24.8505 31.033 33.4688 25.4497 44.6921 23.8672C56.4591 22.2117 68.8023 25.2874 79.2953 31.601C89.7882 37.9228 98.3822 47.45 102.635 58.7382C106.879 70.0345 105.954 80.8845 101.036 89.373Z" fill="url(#paint1_linear_2_1159)"/>
</g>
<mask id="mask1_2_1159" style="mask-type:luminance" maskUnits="userSpaceOnUse" x="99" y="89" width="3" height="4">
<path d="M100.338 90.5091L99.0233 92.5541C99.2668 92.1808 99.494 91.7994 99.7212 91.418L101.036 89.3729C100.809 89.7543 100.581 90.1358 100.338 90.5091Z" fill="white"/>
</mask>
<g mask="url(#mask1_2_1159)">
<path d="M100.338 90.5091L99.0233 92.5541C99.2668 92.1808 99.494 91.7994 99.7212 91.418L101.036 89.3729C100.809 89.7543 100.581 90.1358 100.338 90.5091Z" fill="url(#paint2_linear_2_1159)"/>
</g>
<path d="M107.155 94.9076L101.028 104.41C95.1361 113.605 85.0246 120.162 71.9104 122.004C58.1633 123.936 43.6777 120.332 31.44 112.956C19.1861 105.587 9.09888 94.3963 4.1405 81.2172C-0.817878 68.0301 0.261442 55.2811 6.01511 45.3725C6.28291 44.918 11.363 37.0138 11.6471 36.5675L12.9617 34.5225C12.6777 34.9688 12.4018 35.4151 12.1421 35.8696C6.38841 45.7782 5.30909 58.5272 10.2675 71.7144C15.2258 84.8934 25.313 96.0843 37.567 103.453C49.8047 110.821 64.2903 114.433 78.0374 112.501C91.1515 110.667 101.263 104.11 107.155 94.9076Z" fill="url(#paint3_linear_2_1159)"/>
<path d="M109.857 57.7238C104.891 44.5366 94.8114 33.3539 82.5575 25.9772C70.3036 18.6005 55.8261 15.0055 42.079 16.9369C28.3481 18.8683 17.8876 25.9691 12.142 35.8777C6.38837 45.7782 5.30094 58.5353 10.2674 71.7225C15.2258 84.9016 25.313 96.0924 37.5669 103.461C49.8046 110.83 64.2902 114.433 78.0374 112.501C91.7845 110.578 102.237 103.469 107.982 93.5605C113.744 83.6599 114.815 70.9029 109.857 57.7238ZM101.036 89.373C96.1018 97.8615 87.1994 103.915 75.4324 105.571C63.6654 107.226 51.3222 104.151 40.8292 97.8372C30.3363 91.5154 21.7423 81.9963 17.4981 70.7C13.2457 59.4118 14.1708 48.5536 19.0968 40.057C24.0227 31.5767 32.925 25.5227 44.6921 23.8672C56.4591 22.2117 68.7942 25.2874 79.2952 31.601C89.7881 37.9227 98.3821 47.45 102.634 58.7382C106.879 70.0345 105.954 80.8845 101.036 89.373Z" fill="url(#paint4_linear_2_1159)"/>
<path d="M101.036 89.373C96.1018 97.8615 87.1994 103.915 75.4324 105.571C63.6654 107.226 51.3222 104.151 40.8292 97.8372C30.3363 91.5154 21.7423 81.9963 17.4981 70.7C13.2457 59.4118 14.1709 48.5536 19.0968 40.057C24.0227 31.5767 32.9251 25.5227 44.6921 23.8672C56.4591 22.2117 68.7942 25.2874 79.2952 31.601C89.7882 37.9228 98.3822 47.45 102.635 58.7382C106.879 70.0345 105.954 80.8845 101.036 89.373Z" stroke="url(#paint5_linear_2_1159)" stroke-miterlimit="10"/>
<path d="M49.3015 43.4897L47.9868 45.5347L45.4792 38.8559L46.7858 36.8109L49.3015 43.4897Z" fill="url(#paint6_linear_2_1159)"/>
<mask id="mask2_2_1159" style="mask-type:luminance" maskUnits="userSpaceOnUse" x="57" y="50" width="13" height="5">
<path d="M69.2811 52.2055L67.9664 54.2505C64.1847 52.9683 60.5897 52.3678 57.1895 52.4651L58.5041 50.4201C61.9044 50.3227 65.4994 50.9233 69.2811 52.2055Z" fill="white"/>
</mask>
<g mask="url(#mask2_2_1159)">
<mask id="mask3_2_1159" style="mask-type:luminance" maskUnits="userSpaceOnUse" x="57" y="50" width="13" height="5">
<path d="M69.2812 50.412H57.1976V54.2505H69.2812V50.412Z" fill="white"/>
</mask>
<g mask="url(#mask3_2_1159)">
<path d="M69.2811 52.2055L67.9664 54.2505C64.1847 52.9683 60.5897 52.3678 57.1895 52.4651L58.5041 50.4201C61.9044 50.3227 65.4994 50.9233 69.2811 52.2055Z" fill="url(#paint7_linear_2_1159)"/>
</g>
</g>
<mask id="mask4_2_1159" style="mask-type:luminance" maskUnits="userSpaceOnUse" x="48" y="51" width="5" height="5">
<path d="M48.2709 55.5084L49.5855 53.4633C50.0887 52.6843 50.9976 52.0269 52.3122 51.4913L50.9976 53.5364C49.6829 54.072 48.774 54.7293 48.2709 55.5084Z" fill="white"/>
</mask>
<g mask="url(#mask4_2_1159)">
<path d="M52.3122 51.4832L50.9976 53.5282C49.6829 54.0638 48.774 54.7211 48.2709 55.5002L49.5855 53.4551C50.0887 52.6761 50.9976 52.0188 52.3122 51.4832Z" fill="url(#paint8_linear_2_1159)"/>
</g>
<path d="M55.5258 60.0366L54.2193 62.0816L50.9976 53.5363L52.3122 51.4832L55.5258 60.0366Z" fill="url(#paint9_linear_2_1159)"/>
<path d="M71.6101 75.7557L70.2955 77.8007C70.7824 76.9811 70.8311 76.056 70.4578 75.0578C70.0764 74.0515 69.3785 73.2887 68.3641 72.7531C67.3497 72.2256 66.0188 71.8198 64.3795 71.5439L65.6942 69.4989C67.3416 69.7829 68.6724 70.1806 69.6787 70.7081C70.6931 71.2437 71.391 72.0146 71.7725 73.0128C72.1458 74.0109 72.0971 74.928 71.6101 75.7557Z" fill="url(#paint10_linear_2_1159)"/>
<mask id="mask5_2_1159" style="mask-type:luminance" maskUnits="userSpaceOnUse" x="64" y="69" width="9" height="9">
<path d="M71.6101 75.7557L70.2955 77.8007C70.7824 76.9811 70.8311 76.056 70.4578 75.0578C70.0764 74.0515 69.3785 73.2887 68.3641 72.7531C67.3497 72.2256 66.0188 71.8198 64.3795 71.5439L65.6942 69.4989C67.3416 69.7829 68.6724 70.1806 69.6787 70.7081C70.6931 71.2437 71.391 72.0146 71.7725 73.0128C72.1458 74.0109 72.0971 74.928 71.6101 75.7557Z" fill="white"/>
</mask>
<g mask="url(#mask5_2_1159)">
<mask id="mask6_2_1159" style="mask-type:luminance" maskUnits="userSpaceOnUse" x="64" y="69" width="9" height="9">
<path d="M72.0158 69.4989H64.3713V77.8089H72.0158V69.4989Z" fill="white"/>
</mask>
<g mask="url(#mask6_2_1159)">
<path d="M71.6101 75.7557L70.2955 77.8007C70.7824 76.9811 70.8311 76.056 70.4578 75.0578C70.0764 74.0515 69.3785 73.2887 68.3641 72.7531C67.3497 72.2256 66.0188 71.8198 64.3795 71.5439L65.6942 69.4989C67.3416 69.7829 68.6724 70.1806 69.6787 70.7081C70.6931 71.2437 71.391 72.0146 71.7725 73.0128C72.1458 74.0109 72.0971 74.928 71.6101 75.7557Z" fill="url(#paint11_linear_2_1159)"/>
</g>
</g>
<mask id="mask7_2_1159" style="mask-type:luminance" maskUnits="userSpaceOnUse" x="70" y="75" width="2" height="3">
<path d="M71.529 75.8856L70.2224 77.9306L70.2955 77.8089L71.6101 75.7557L71.529 75.8856Z" fill="white"/>
</mask>
<g mask="url(#mask7_2_1159)">
<path d="M71.529 75.8856L70.2224 77.9306L70.2955 77.8089L71.6101 75.7557L71.529 75.8856Z" fill="url(#paint12_linear_2_1159)"/>
</g>
<mask id="mask8_2_1159" style="mask-type:luminance" maskUnits="userSpaceOnUse" x="37" y="49" width="22" height="22">
<path d="M38.8572 51.1667L40.1719 49.1217C40.1151 49.211 40.0583 49.3002 40.0096 49.3895C38.3784 52.1324 38.1918 55.1675 39.4415 58.4947C40.4559 61.1809 41.9491 63.2421 43.9454 64.6704C45.9337 66.0987 48.1166 67.0968 50.4782 67.6487C52.8397 68.2005 55.6313 68.6144 58.8612 68.8741L57.5465 70.9191C54.3166 70.6594 51.5331 70.2455 49.1635 69.6937C46.802 69.1419 44.619 68.1437 42.6308 66.7154C40.6426 65.279 39.1413 63.2259 38.1269 60.5398C36.8771 57.2125 37.0638 54.1775 38.6949 51.4345C38.7517 51.3453 38.8004 51.256 38.8572 51.1667Z" fill="white"/>
</mask>
<g mask="url(#mask8_2_1159)">
<mask id="mask9_2_1159" style="mask-type:luminance" maskUnits="userSpaceOnUse" x="37" y="49" width="22" height="22">
<path d="M58.8529 49.1217H37.3071V70.9191H58.8529V49.1217Z" fill="white"/>
</mask>
<g mask="url(#mask9_2_1159)">
<path d="M58.853 68.8741L57.5383 70.9191C54.3085 70.6594 51.525 70.2455 49.1553 69.6937C46.7938 69.1419 44.6108 68.1437 42.6226 66.7154C40.6344 65.279 39.1331 63.2259 38.1187 60.5398C36.8689 57.2125 37.0556 54.1775 38.6867 51.4345C38.7435 51.3453 38.7922 51.256 38.849 51.1667L40.1637 49.1217C40.1069 49.211 40.0501 49.3002 40.0014 49.3895C38.3702 52.1324 38.1836 55.1675 39.4333 58.4947C40.4477 61.1809 41.9409 63.2421 43.9373 64.6704C45.9255 66.0987 48.1085 67.0968 50.47 67.6487C52.8315 68.2005 55.6231 68.6144 58.853 68.8741Z" fill="url(#paint13_linear_2_1159)"/>
</g>
</g>
<path d="M62.6348 78.9206L61.3201 80.9738L57.5385 70.919L58.8531 68.874L62.6348 78.9206Z" fill="url(#paint14_linear_2_1159)"/>
<mask id="mask10_2_1159" style="mask-type:luminance" maskUnits="userSpaceOnUse" x="70" y="80" width="11" height="8">
<path d="M80.8777 80.073L79.563 82.118C77.9075 84.7068 74.8806 86.5976 70.4902 87.7905L71.8049 85.7455C76.2033 84.5526 79.2222 82.6617 80.8777 80.073Z" fill="white"/>
</mask>
<g mask="url(#mask10_2_1159)">
<path d="M80.8777 80.073L79.563 82.118C77.9075 84.7068 74.8806 86.5976 70.4902 87.7905L71.8049 85.7455C76.2033 84.5526 79.2222 82.6617 80.8777 80.073Z" fill="url(#paint15_linear_2_1159)"/>
</g>
<path d="M68.0638 93.3576L66.7573 95.4108L64.2903 88.8537L65.5968 86.8005L68.0638 93.3576Z" fill="url(#paint16_linear_2_1159)"/>
<path d="M74.3369 92.4811L73.0222 94.5261L66.7573 95.4107L68.0639 93.3575L74.3369 92.4811Z" fill="url(#paint17_linear_2_1159)"/>
<mask id="mask11_2_1159" style="mask-type:luminance" maskUnits="userSpaceOnUse" x="46" y="84" width="20" height="5">
<path d="M65.5969 86.8005L64.2822 88.8456C61.1254 89.1215 57.9848 89.016 54.8523 88.5209C51.728 88.034 49.0581 87.2631 46.8589 86.2243L48.1735 84.1793C50.3728 85.2262 53.0345 85.989 56.167 86.4759C59.2995 86.9709 62.44 87.0683 65.5969 86.8005Z" fill="white"/>
</mask>
<g mask="url(#mask11_2_1159)">
<mask id="mask12_2_1159" style="mask-type:luminance" maskUnits="userSpaceOnUse" x="46" y="84" width="20" height="5">
<path d="M65.5969 84.1793H46.8671V88.9997H65.5969V84.1793Z" fill="white"/>
</mask>
<g mask="url(#mask12_2_1159)">
<path d="M65.5969 86.8005L64.2822 88.8456C61.1254 89.1215 57.9848 89.016 54.8523 88.5209C51.728 88.034 49.0581 87.2631 46.8589 86.2243L48.1735 84.1793C50.3728 85.2262 53.0345 85.989 56.167 86.4759C59.2995 86.9709 62.44 87.0683 65.5969 86.8005Z" fill="url(#paint18_linear_2_1159)"/>
</g>
</g>
<path d="M77.1041 64.7596C79.0923 66.1879 80.5855 68.2329 81.5837 70.8784C82.8172 74.1651 82.6306 77.1596 81.0075 79.862C79.3845 82.5643 76.317 84.5201 71.7968 85.7455L74.3287 92.4811L68.0638 93.3656L65.5968 86.8086C62.44 87.0845 59.2994 86.979 56.1669 86.484C53.0426 85.997 50.3727 85.2261 48.1735 84.1874L48.8552 76.3643C50.8677 77.2651 53.0832 77.9468 55.5015 78.4093C57.9198 78.8719 60.2976 79.0504 62.6266 78.9287L58.845 68.8821C55.6151 68.6224 52.8316 68.2086 50.462 67.6567C48.1005 67.1049 45.9175 66.1067 43.9292 64.6784C41.941 63.2421 40.4397 61.1889 39.4253 58.5028C38.1756 55.1756 38.3622 52.1405 39.9934 49.3975C41.6245 46.6546 44.7245 44.6907 49.2934 43.4978L46.7777 36.819L53.0426 35.9344L55.5096 42.4915C60.8007 42.175 65.5075 42.7999 69.6219 44.3742L69.273 52.2135C65.4913 50.9313 61.8963 50.3308 58.496 50.4282L62.3426 60.6614C65.5075 60.8968 68.2667 61.2701 70.5957 61.8138C72.9329 62.3494 75.0997 63.3394 77.0879 64.7677L77.1041 64.7596ZM55.5258 60.0366L52.3122 51.4913C50.8596 52.0756 49.9101 52.814 49.4476 53.6986C48.9931 54.5913 48.9525 55.557 49.3502 56.5957C49.7316 57.602 50.4376 58.3648 51.4764 58.8923C52.5151 59.4198 53.8622 59.8093 55.534 60.0366M71.6101 75.7557C72.0971 74.936 72.1458 74.0109 71.7725 73.0127C71.391 72.0065 70.6931 71.2436 69.6787 70.708C68.6643 70.1805 67.3334 69.7748 65.6942 69.4989L68.8185 77.8007C70.2062 77.2732 71.1395 76.5915 71.6183 75.7557" fill="url(#paint19_linear_2_1159)"/>
<path d="M48.1816 84.1793L46.8669 86.2325L47.5486 78.4094L48.8633 76.3644L48.1816 84.1793Z" fill="url(#paint20_linear_2_1159)"/>
<path d="M55.5258 60.0366L52.3122 51.4913C50.8596 52.0756 49.9101 52.814 49.4476 53.6986C48.9931 54.5913 48.9525 55.557 49.3502 56.5957C49.7316 57.602 50.4376 58.3648 51.4764 58.8923C52.5151 59.4198 53.8622 59.8093 55.534 60.0366M71.6101 75.7557C72.0971 74.936 72.1458 74.0109 71.7725 73.0127C71.391 72.0065 70.6931 71.2436 69.6787 70.708C68.6643 70.1805 67.3334 69.7748 65.6942 69.4989L68.8185 77.8007C70.2062 77.2732 71.1395 76.5915 71.6183 75.7557M77.1041 64.7596C79.0923 66.1879 80.5855 68.2329 81.5837 70.8784C82.8172 74.1651 82.6306 77.1596 81.0075 79.862C79.3845 82.5643 76.317 84.5201 71.7968 85.7455L74.3287 92.4811L68.0638 93.3656L65.5968 86.8086C62.44 87.0845 59.2994 86.979 56.1669 86.484C53.0426 85.997 50.3727 85.2261 48.1735 84.1874L48.8552 76.3643C50.8677 77.2651 53.0832 77.9468 55.5015 78.4093C57.9198 78.8719 60.2976 79.0504 62.6266 78.9287L58.845 68.8821C55.6151 68.6224 52.8316 68.2086 50.462 67.6567C48.1005 67.1049 45.9175 66.1067 43.9292 64.6784C41.941 63.2421 40.4397 61.1889 39.4253 58.5028C38.1756 55.1756 38.3622 52.1405 39.9934 49.3975C41.6245 46.6546 44.7245 44.6907 49.2934 43.4978L46.7777 36.819L53.0426 35.9344L55.5096 42.4915C60.8007 42.175 65.5075 42.7999 69.6219 44.3742L69.273 52.2135C65.4913 50.9313 61.8963 50.3308 58.496 50.4282L62.3426 60.6614C65.5075 60.8968 68.2667 61.2701 70.5957 61.8138C72.9329 62.3494 75.0997 63.3394 77.0879 64.7677L77.1041 64.7596Z" stroke="url(#paint21_linear_2_1159)" stroke-width="0.5" stroke-miterlimit="10"/>
<path style="mix-blend-mode:overlay" d="M70.734 21.0486C70.9983 15.1608 66.6355 10.1824 60.9895 9.92901C55.3436 9.67559 50.5524 14.2431 50.2881 20.1309C50.0238 26.0187 54.3865 30.9971 60.0325 31.2505C65.6785 31.5039 70.4697 26.9364 70.734 21.0486Z" fill="url(#paint22_radial_2_1159)"/>
<path style="mix-blend-mode:overlay" d="M59.7701 41.1688C57.5871 41.0957 56.1507 31.812 56.5565 20.4426C56.9622 9.08133 59.056 -0.0726027 61.2389 0.000434031C63.4219 0.0734707 64.8583 9.35724 64.4526 20.7266C64.0468 32.096 61.945 41.2499 59.762 41.1769L59.7701 41.1688Z" fill="url(#paint23_radial_2_1159)"/>
<path style="mix-blend-mode:overlay" d="M81.0238 21.3028C80.9426 23.4939 71.6913 24.9465 60.3625 24.5489C49.0337 24.1512 39.9041 22.0575 39.9853 19.8664C40.0664 17.6753 49.3177 16.2227 60.6465 16.6204C71.9753 17.018 81.1049 19.1117 81.0238 21.3028Z" fill="url(#paint24_radial_2_1159)"/>
<path style="mix-blend-mode:hard-light" d="M80.0418 21.2703C80.0012 22.4227 71.2206 23.0475 60.4274 22.6661C49.6342 22.2847 40.9266 21.0512 40.9672 19.8989C41.0078 18.7465 49.7884 18.1216 60.5816 18.503C71.3748 18.8845 80.0824 20.118 80.0418 21.2703Z" fill="url(#paint25_radial_2_1159)"/>
<path style="mix-blend-mode:hard-light" d="M70.1819 20.9295C70.0114 25.7581 65.5319 29.5235 60.1921 29.3369C54.8442 29.1502 50.6486 25.0845 50.8271 20.2478C50.9976 15.4193 55.4772 11.6539 60.8169 11.8405C66.1649 12.0272 70.3604 16.0929 70.1819 20.9295Z" fill="url(#paint26_radial_2_1159)"/>
<path style="mix-blend-mode:hard-light" d="M59.8026 40.1868C58.6584 40.1463 58.0416 31.3413 58.4312 20.5156C58.8207 9.68998 60.0623 0.949921 61.2065 0.990497C62.3508 1.03107 62.9675 9.83605 62.578 20.6617C62.1885 31.4874 60.9469 40.2274 59.8026 40.1868Z" fill="url(#paint27_radial_2_1159)"/>
<path style="mix-blend-mode:overlay" d="M18.1717 67.5188C18.0662 70.5376 15.6317 72.8991 12.7345 72.8017C9.83743 72.7044 7.58141 70.1724 7.6869 67.1536C7.7924 64.1347 10.227 61.7732 13.1241 61.8706C16.0212 61.968 18.2772 64.4999 18.1717 67.5188Z" fill="url(#paint28_radial_2_1159)"/>
<path style="mix-blend-mode:overlay" d="M12.5561 77.89C11.4362 77.8494 10.6977 73.0939 10.9087 67.2672C11.1197 61.4405 12.1909 56.7499 13.3108 56.7824C14.4307 56.823 15.1691 61.5785 14.9581 67.4052C14.7472 73.2319 13.6759 77.9225 12.5561 77.89Z" fill="url(#paint29_radial_2_1159)"/>
<path style="mix-blend-mode:overlay" d="M23.4466 67.7055C23.406 68.8254 18.6667 69.572 12.8563 69.3691C7.04578 69.1662 2.37143 68.095 2.41201 66.967C2.45258 65.8471 7.19185 65.1005 13.0023 65.3034C18.8128 65.5063 23.4871 66.5775 23.4466 67.7055Z" fill="url(#paint30_radial_2_1159)"/>
<path style="mix-blend-mode:hard-light" d="M22.9434 67.6892C22.9191 68.2816 18.4233 68.5981 12.8887 68.4034C7.35415 68.2086 2.89079 67.5756 2.91514 66.9832C2.93948 66.3908 7.4353 66.0743 12.9699 66.2691C18.5044 66.4638 22.9678 67.0968 22.9434 67.6892Z" fill="url(#paint31_radial_2_1159)"/>
<path style="mix-blend-mode:hard-light" d="M17.8958 67.5106C17.8066 69.9858 15.51 71.9172 12.7751 71.8198C10.0322 71.7224 7.88168 69.6368 7.97094 67.1617C8.06021 64.6866 10.3568 62.7551 13.0916 62.8525C15.8346 62.9499 17.9851 65.0355 17.8958 67.5106Z" fill="url(#paint32_radial_2_1159)"/>
<path style="mix-blend-mode:hard-light" d="M12.5722 77.3869C11.9879 77.3625 11.6714 72.8505 11.8662 67.2997C12.0609 61.7489 12.702 57.2693 13.2863 57.2937C13.8706 57.318 14.1871 61.8301 13.9924 67.3809C13.7976 72.9316 13.1565 77.4112 12.5722 77.3869Z" fill="url(#paint33_radial_2_1159)"/>
<path style="mix-blend-mode:overlay" d="M50.7136 53.6823C50.6081 56.7012 48.1735 59.0627 45.2764 58.9653C42.3793 58.8679 40.1233 56.336 40.2288 53.3171C40.3343 50.2983 42.7688 47.9368 45.666 48.0342C48.5631 48.1315 50.8191 50.6635 50.7136 53.6823Z" fill="url(#paint34_radial_2_1159)"/>
<path style="mix-blend-mode:overlay" d="M45.0978 64.0454C43.9779 64.0048 43.2394 59.2493 43.4504 53.4226C43.6614 47.5959 44.7326 42.9053 45.8525 42.9378C46.9724 42.9784 47.7109 47.7339 47.4999 53.5606C47.2889 59.3873 46.2177 64.0779 45.0978 64.0454Z" fill="url(#paint35_radial_2_1159)"/>
<path style="mix-blend-mode:overlay" d="M55.9965 53.8691C55.9559 54.989 51.2167 55.7356 45.4062 55.5327C39.5957 55.3298 34.9214 54.2586 34.9619 53.1306C35.0025 52.0107 39.7418 51.2641 45.5523 51.467C51.3627 51.6698 56.0371 52.7411 55.9965 53.8691Z" fill="url(#paint36_radial_2_1159)"/>
<path style="mix-blend-mode:hard-light" d="M55.4933 53.8447C55.469 54.4371 50.9732 54.7536 45.4386 54.5589C39.9041 54.3641 35.4407 53.7311 35.4651 53.1387C35.4894 52.5463 39.9852 52.2298 45.5198 52.4246C51.0543 52.6193 55.5177 53.2523 55.4933 53.8447Z" fill="url(#paint37_radial_2_1159)"/>
<path style="mix-blend-mode:hard-light" d="M50.4376 53.6742C50.3483 56.1493 48.0517 58.0808 45.3169 57.9834C42.574 57.886 40.4234 55.8004 40.5127 53.3253C40.602 50.8501 42.8986 48.9187 45.6334 49.0161C48.3763 49.1135 50.5268 51.1991 50.4376 53.6742Z" fill="url(#paint38_radial_2_1159)"/>
<path style="mix-blend-mode:hard-light" d="M45.1141 63.5424C44.5298 63.5181 44.2133 59.006 44.408 53.4552C44.6028 47.9044 45.2439 43.4248 45.8282 43.4492C46.4125 43.4735 46.729 47.9856 46.5342 53.5364C46.3395 59.0872 45.6984 63.5667 45.1141 63.5424Z" fill="url(#paint39_radial_2_1159)"/>
<defs>
<linearGradient id="paint0_linear_2_1159" x1="113.833" y1="118.49" x2="8.58762" y2="13.2445" gradientUnits="userSpaceOnUse">
<stop stop-color="#D7AC4C"/>
<stop offset="0.18" stop-color="#FFFFB0"/>
<stop offset="0.33" stop-color="#F4D174"/>
<stop offset="0.37" stop-color="#FBED99"/>
<stop offset="0.39" stop-color="#FAEC97"/>
<stop offset="0.43" stop-color="#DEB04D"/>
<stop offset="0.53" stop-color="#DEB14E"/>
<stop offset="0.56" stop-color="#E1B755"/>
<stop offset="0.59" stop-color="#E6C061"/>
<stop offset="0.61" stop-color="#EDCE72"/>
<stop offset="0.62" stop-color="#F6DF86"/>
<stop offset="0.75" stop-color="#F1D87E"/>
<stop offset="0.77" stop-color="#EACC71"/>
<stop offset="0.78" stop-color="#E1BD60"/>
<stop offset="0.79" stop-color="#DBB354"/>
<stop offset="0.81" stop-color="#D7AD4D"/>
<stop offset="0.85" stop-color="#D7AC4C"/>
<stop offset="1" stop-color="#966424"/>
</linearGradient>
<linearGradient id="paint1_linear_2_1159" x1="110.141" y1="72.8586" x2="28.7376" y2="27.9735" gradientUnits="userSpaceOnUse">
<stop stop-color="#A16C0C"/>
<stop offset="0.23" stop-color="#DFC072"/>
<stop offset="0.56" stop-color="#A8700D"/>
<stop offset="0.75" stop-color="#FADB85"/>
<stop offset="0.8" stop-color="#A16C0C"/>
<stop offset="0.93" stop-color="#6C4405"/>
</linearGradient>
<linearGradient id="paint2_linear_2_1159" x1="99.0233" y1="90.9635" x2="101.036" y2="90.9635" gradientUnits="userSpaceOnUse">
<stop stop-color="#A16C0C"/>
<stop offset="0.18" stop-color="#C9BF70"/>
<stop offset="0.33" stop-color="#BE9134"/>
<stop offset="0.43" stop-color="#A8700D"/>
<stop offset="0.71" stop-color="#C09F46"/>
<stop offset="0.85" stop-color="#A16C0C"/>
<stop offset="1" stop-color="#602400"/>
</linearGradient>
<linearGradient id="paint3_linear_2_1159" x1="-23.1346" y1="35.6586" x2="93.1154" y2="121.777" gradientUnits="userSpaceOnUse">
<stop stop-color="#B39200"/>
<stop offset="0.06" stop-color="#AD8C00"/>
<stop offset="0.13" stop-color="#9D7B03"/>
<stop offset="0.22" stop-color="#836008"/>
<stop offset="0.26" stop-color="#73500B"/>
<stop offset="0.28" stop-color="#785311"/>
<stop offset="0.36" stop-color="#8A5D24"/>
<stop offset="0.41" stop-color="#91612B"/>
<stop offset="0.43" stop-color="#976707"/>
<stop offset="0.53" stop-color="#D8B364"/>
<stop offset="0.55" stop-color="#D4AD5D"/>
<stop offset="0.58" stop-color="#C99F4A"/>
<stop offset="0.61" stop-color="#B9872B"/>
<stop offset="0.64" stop-color="#A8700D"/>
<stop offset="0.68" stop-color="#815400"/>
<stop offset="0.8" stop-color="#B38136"/>
<stop offset="0.82" stop-color="#A1702C"/>
<stop offset="0.85" stop-color="#80501B"/>
<stop offset="0.88" stop-color="#6C3D10"/>
<stop offset="0.9" stop-color="#65360D"/>
<stop offset="0.91" stop-color="#6E3E0C"/>
<stop offset="0.94" stop-color="#8A570C"/>
<stop offset="0.96" stop-color="#9B660C"/>
<stop offset="0.98" stop-color="#A16C0C"/>
<stop offset="1" stop-color="#B9924B"/>
</linearGradient>
<linearGradient id="paint4_linear_2_1159" x1="116.56" y1="111.341" x2="-8.81949" y2="7.87221" gradientUnits="userSpaceOnUse">
<stop stop-color="#D7AC4C"/>
<stop offset="0.18" stop-color="#FFFFB0"/>
<stop offset="0.33" stop-color="#F4D174"/>
<stop offset="0.37" stop-color="#FBED99"/>
<stop offset="0.39" stop-color="#FAEC97"/>
<stop offset="0.43" stop-color="#DEB04D"/>
<stop offset="0.53" stop-color="#DEB14E"/>
<stop offset="0.56" stop-color="#E1B755"/>
<stop offset="0.59" stop-color="#E6C061"/>
<stop offset="0.61" stop-color="#EDCE72"/>
<stop offset="0.62" stop-color="#F6DF86"/>
<stop offset="0.75" stop-color="#F1D87E"/>
<stop offset="0.77" stop-color="#EACC71"/>
<stop offset="0.78" stop-color="#E1BD60"/>
<stop offset="0.79" stop-color="#DBB354"/>
<stop offset="0.81" stop-color="#D7AD4D"/>
<stop offset="0.85" stop-color="#D7AC4C"/>
<stop offset="1" stop-color="#966424"/>
</linearGradient>
<linearGradient id="paint5_linear_2_1159" x1="24.3392" y1="32.6316" x2="95.7772" y2="96.7984" gradientUnits="userSpaceOnUse">
<stop stop-color="#D7AC4C"/>
<stop offset="0.18" stop-color="#FFFFB0"/>
<stop offset="0.33" stop-color="#F4D174"/>
<stop offset="0.43" stop-color="#DEB04D"/>
<stop offset="0.71" stop-color="#F6DF86"/>
<stop offset="0.85" stop-color="#D7AC4C"/>
<stop offset="1" stop-color="#966424"/>
</linearGradient>
<linearGradient id="paint6_linear_2_1159" x1="43.9049" y1="36.9326" x2="49.9101" y2="44.2363" gradientUnits="userSpaceOnUse">
<stop stop-color="#A16C0C"/>
<stop offset="0.23" stop-color="#BE9134"/>
<stop offset="0.56" stop-color="#A8700D"/>
<stop offset="1" stop-color="#432400"/>
</linearGradient>
<linearGradient id="paint7_linear_2_1159" x1="68.8429" y1="53.4633" x2="58.496" y2="51.1748" gradientUnits="userSpaceOnUse">
<stop stop-color="#A16C0C"/>
<stop offset="0.23" stop-color="#BE9134"/>
<stop offset="0.56" stop-color="#A8700D"/>
<stop offset="1" stop-color="#432400"/>
</linearGradient>
<linearGradient id="paint8_linear_2_1159" x1="46.307" y1="55.2648" x2="52.4745" y2="52.5219" gradientUnits="userSpaceOnUse">
<stop stop-color="#A16C0C"/>
<stop offset="0.23" stop-color="#BE9134"/>
<stop offset="0.56" stop-color="#A8700D"/>
<stop offset="1" stop-color="#432400"/>
</linearGradient>
<linearGradient id="paint9_linear_2_1159" x1="56.1264" y1="59.436" x2="50.1211" y2="53.8771" gradientUnits="userSpaceOnUse">
<stop stop-color="#A16C0C"/>
<stop offset="0.23" stop-color="#BE9134"/>
<stop offset="0.56" stop-color="#A8700D"/>
<stop offset="1" stop-color="#432400"/>
</linearGradient>
<linearGradient id="paint10_linear_2_1159" x1="64.3714" y1="73.6539" x2="72.0159" y2="73.6539" gradientUnits="userSpaceOnUse">
<stop stop-color="#A16C0C"/>
<stop offset="0.23" stop-color="#BE9134"/>
<stop offset="0.56" stop-color="#A8700D"/>
<stop offset="1" stop-color="#432400"/>
</linearGradient>
<linearGradient id="paint11_linear_2_1159" x1="77.1609" y1="78.5149" x2="63.6978" y2="70.5214" gradientUnits="userSpaceOnUse">
<stop stop-color="#A16C0C"/>
<stop offset="0.23" stop-color="#BE9134"/>
<stop offset="0.56" stop-color="#A8700D"/>
<stop offset="1" stop-color="#432400"/>
</linearGradient>
<linearGradient id="paint12_linear_2_1159" x1="70.2224" y1="76.8432" x2="71.6101" y2="76.8432" gradientUnits="userSpaceOnUse">
<stop stop-color="#A16C0C"/>
<stop offset="0.18" stop-color="#DBBF7D"/>
<stop offset="0.33" stop-color="#BE9134"/>
<stop offset="0.43" stop-color="#A8700D"/>
<stop offset="0.71" stop-color="#D9AA59"/>
<stop offset="0.85" stop-color="#A16C0C"/>
<stop offset="1" stop-color="#602400"/>
</linearGradient>
<linearGradient id="paint13_linear_2_1159" x1="37.3072" y1="60.0204" x2="58.853" y2="60.0204" gradientUnits="userSpaceOnUse">
<stop stop-color="#A16C0C"/>
<stop offset="0.23" stop-color="#BE9134"/>
<stop offset="0.56" stop-color="#A8700D"/>
<stop offset="1" stop-color="#432400"/>
</linearGradient>
<linearGradient id="paint14_linear_2_1159" x1="66.4084" y1="80.6978" x2="53.9272" y2="69.2879" gradientUnits="userSpaceOnUse">
<stop stop-color="#A16C0C"/>
<stop offset="0.23" stop-color="#BE9134"/>
<stop offset="0.56" stop-color="#A8700D"/>
<stop offset="1" stop-color="#432400"/>
</linearGradient>
<linearGradient id="paint15_linear_2_1159" x1="84.3672" y1="83.6193" x2="69.3054" y2="84.1549" gradientUnits="userSpaceOnUse">
<stop stop-color="#A16C0C"/>
<stop offset="0.23" stop-color="#BE9134"/>
<stop offset="0.56" stop-color="#A8700D"/>
<stop offset="1" stop-color="#432400"/>
</linearGradient>
<linearGradient id="paint16_linear_2_1159" x1="71.4154" y1="95.0212" x2="61.1416" y2="87.3361" gradientUnits="userSpaceOnUse">
<stop stop-color="#A16C0C"/>
<stop offset="0.23" stop-color="#BE9134"/>
<stop offset="0.56" stop-color="#A8700D"/>
<stop offset="1" stop-color="#432400"/>
</linearGradient>
<linearGradient id="paint17_linear_2_1159" x1="70.3524" y1="91.1258" x2="70.6607" y2="95.6135" gradientUnits="userSpaceOnUse">
<stop stop-color="#A16C0C"/>
<stop offset="0.23" stop-color="#BE9134"/>
<stop offset="0.56" stop-color="#A8700D"/>
<stop offset="1" stop-color="#432400"/>
</linearGradient>
<linearGradient id="paint18_linear_2_1159" x1="46.867" y1="86.5895" x2="65.5969" y2="86.5895" gradientUnits="userSpaceOnUse">
<stop stop-color="#A16C0C"/>
<stop offset="0.23" stop-color="#BE9134"/>
<stop offset="0.56" stop-color="#A8700D"/>
<stop offset="1" stop-color="#432400"/>
</linearGradient>
<linearGradient id="paint19_linear_2_1159" x1="79.206" y1="85.2748" x2="26.0515" y2="30.2944" gradientUnits="userSpaceOnUse">
<stop stop-color="#D7AC4C"/>
<stop offset="0.18" stop-color="#FFFFB0"/>
<stop offset="0.33" stop-color="#F4D174"/>
<stop offset="0.37" stop-color="#FBED99"/>
<stop offset="0.39" stop-color="#FAEC97"/>
<stop offset="0.43" stop-color="#DEB04D"/>
<stop offset="0.53" stop-color="#DEB14E"/>
<stop offset="0.56" stop-color="#E1B755"/>
<stop offset="0.59" stop-color="#E6C061"/>
<stop offset="0.61" stop-color="#EDCE72"/>
<stop offset="0.62" stop-color="#F6DF86"/>
<stop offset="0.75" stop-color="#F1D87E"/>
<stop offset="0.77" stop-color="#EACC71"/>
<stop offset="0.78" stop-color="#E1BD60"/>
<stop offset="0.79" stop-color="#DBB354"/>
<stop offset="0.81" stop-color="#D7AD4D"/>
<stop offset="0.85" stop-color="#D7AC4C"/>
<stop offset="1" stop-color="#966424"/>
</linearGradient>
<linearGradient id="paint20_linear_2_1159" x1="54.0651" y1="92.7895" x2="42.501" y2="71.3411" gradientUnits="userSpaceOnUse">
<stop stop-color="#A16C0C"/>
<stop offset="0.23" stop-color="#BE9134"/>
<stop offset="0.56" stop-color="#A8700D"/>
<stop offset="1" stop-color="#432400"/>
</linearGradient>
<linearGradient id="paint21_linear_2_1159" x1="38.3135" y1="45.7701" x2="81.7054" y2="84.7473" gradientUnits="userSpaceOnUse">
<stop stop-color="#D7AC4C"/>
<stop offset="0.18" stop-color="#FFFFB0"/>
<stop offset="0.33" stop-color="#F4D174"/>
<stop offset="0.43" stop-color="#DEB04D"/>
<stop offset="0.71" stop-color="#F6DF86"/>
<stop offset="0.85" stop-color="#D7AC4C"/>
<stop offset="1" stop-color="#966424"/>
</linearGradient>
<radialGradient id="paint22_radial_2_1159" cx="0" cy="0" r="1" gradientUnits="userSpaceOnUse" gradientTransform="translate(58.4148 16.2993) rotate(2.01) scale(10.2251 10.6796)">
<stop stop-color="white"/>
<stop offset="0.14" stop-color="#FFF4E1" stop-opacity="0.82"/>
<stop offset="0.38" stop-color="#FFE3B1" stop-opacity="0.53"/>
<stop offset="0.59" stop-color="#FFD68C" stop-opacity="0.3"/>
<stop offset="0.77" stop-color="#FFCD71" stop-opacity="0.14"/>
<stop offset="0.92" stop-color="#FFC761" stop-opacity="0.04"/>
<stop offset="1" stop-color="#FFC55B" stop-opacity="0"/>
</radialGradient>
<radialGradient id="paint23_radial_2_1159" cx="0" cy="0" r="1" gradientUnits="userSpaceOnUse" gradientTransform="translate(68.0731 21.089) rotate(92.05) scale(20.6126 3.96021)">
<stop stop-color="white"/>
<stop offset="0.14" stop-color="#FFF4E1" stop-opacity="0.82"/>
<stop offset="0.38" stop-color="#FFE3B1" stop-opacity="0.53"/>
<stop offset="0.59" stop-color="#FFD68C" stop-opacity="0.3"/>
<stop offset="0.77" stop-color="#FFCD71" stop-opacity="0.14"/>
<stop offset="0.92" stop-color="#FFC761" stop-opacity="0.04"/>
<stop offset="1" stop-color="#FFC55B" stop-opacity="0"/>
</radialGradient>
<radialGradient id="paint24_radial_2_1159" cx="0" cy="0" r="1" gradientUnits="userSpaceOnUse" gradientTransform="translate(64.3447 20.0019) rotate(2.01) scale(20.5152 3.96021)">
<stop stop-color="white"/>
<stop offset="0.14" stop-color="#FFF4E1" stop-opacity="0.82"/>
<stop offset="0.38" stop-color="#FFE3B1" stop-opacity="0.53"/>
<stop offset="0.59" stop-color="#FFD68C" stop-opacity="0.3"/>
<stop offset="0.77" stop-color="#FFCD71" stop-opacity="0.14"/>
<stop offset="0.92" stop-color="#FFC761" stop-opacity="0.04"/>
<stop offset="1" stop-color="#FFC55B" stop-opacity="0"/>
</radialGradient>
<radialGradient id="paint25_radial_2_1159" cx="0" cy="0" r="1" gradientUnits="userSpaceOnUse" gradientTransform="translate(61.4277 18.452) rotate(2.01) scale(19.5138 2.071)">
<stop stop-color="white"/>
<stop offset="0.04" stop-color="#FFFBF4" stop-opacity="0.94"/>
<stop offset="0.19" stop-color="#FFEDCC" stop-opacity="0.69"/>
<stop offset="0.35" stop-color="#FFE0A9" stop-opacity="0.48"/>
<stop offset="0.5" stop-color="#FFD68D" stop-opacity="0.31"/>
<stop offset="0.64" stop-color="#FFCF77" stop-opacity="0.17"/>
<stop offset="0.77" stop-color="#FFC967" stop-opacity="0.08"/>
<stop offset="0.9" stop-color="#FFC65E" stop-opacity="0.02"/>
<stop offset="1" stop-color="#FFC55B" stop-opacity="0"/>
</radialGradient>
<radialGradient id="paint26_radial_2_1159" cx="0" cy="0" r="1" gradientUnits="userSpaceOnUse" gradientTransform="translate(56.2042 23.7556) rotate(2.01) scale(9.67533 8.73835)">
<stop stop-color="white"/>
<stop offset="0.04" stop-color="#FFFBF4" stop-opacity="0.94"/>
<stop offset="0.19" stop-color="#FFEDCC" stop-opacity="0.69"/>
<stop offset="0.35" stop-color="#FFE0A9" stop-opacity="0.48"/>
<stop offset="0.5" stop-color="#FFD68D" stop-opacity="0.31"/>
<stop offset="0.64" stop-color="#FFCF77" stop-opacity="0.17"/>
<stop offset="0.77" stop-color="#FFC967" stop-opacity="0.08"/>
<stop offset="0.9" stop-color="#FFC65E" stop-opacity="0.02"/>
<stop offset="1" stop-color="#FFC55B" stop-opacity="0"/>
</radialGradient>
<radialGradient id="paint27_radial_2_1159" cx="0" cy="0" r="1" gradientUnits="userSpaceOnUse" gradientTransform="translate(57.3064 20.5158) rotate(92.05) scale(19.5852 2.071)">
<stop stop-color="white"/>
<stop offset="0.06" stop-color="#FFF7E9" stop-opacity="0.87"/>
<stop offset="0.16" stop-color="#FFEBC8" stop-opacity="0.67"/>
<stop offset="0.26" stop-color="#FFE1AB" stop-opacity="0.49"/>
<stop offset="0.37" stop-color="#FFD892" stop-opacity="0.34"/>
<stop offset="0.48" stop-color="#FFD17E" stop-opacity="0.22"/>
<stop offset="0.59" stop-color="#FFCB6E" stop-opacity="0.12"/>
<stop offset="0.71" stop-color="#FFC863" stop-opacity="0.05"/>
<stop offset="0.84" stop-color="#FFC55D" stop-opacity="0.01"/>
<stop offset="1" stop-color="#FFC55B" stop-opacity="0"/>
</radialGradient>
<radialGradient id="paint28_radial_2_1159" cx="0" cy="0" r="1" gradientUnits="userSpaceOnUse" gradientTransform="translate(11.0461 63.0327) rotate(2.01) scale(5.24038 5.47329)">
<stop stop-color="white"/>
<stop offset="0.14" stop-color="#FFF4E1" stop-opacity="0.82"/>
<stop offset="0.38" stop-color="#FFE3B1" stop-opacity="0.53"/>
<stop offset="0.59" stop-color="#FFD68C" stop-opacity="0.3"/>
<stop offset="0.77" stop-color="#FFCD71" stop-opacity="0.14"/>
<stop offset="0.92" stop-color="#FFC761" stop-opacity="0.04"/>
<stop offset="1" stop-color="#FFC55B" stop-opacity="0"/>
</radialGradient>
<radialGradient id="paint29_radial_2_1159" cx="0" cy="0" r="1" gradientUnits="userSpaceOnUse" gradientTransform="translate(20.4135 67.802) rotate(92.05) scale(10.5639 2.02961)">
<stop stop-color="white"/>
<stop offset="0.14" stop-color="#FFF4E1" stop-opacity="0.82"/>
<stop offset="0.38" stop-color="#FFE3B1" stop-opacity="0.53"/>
<stop offset="0.59" stop-color="#FFD68C" stop-opacity="0.3"/>
<stop offset="0.77" stop-color="#FFCD71" stop-opacity="0.14"/>
<stop offset="0.92" stop-color="#FFC761" stop-opacity="0.04"/>
<stop offset="1" stop-color="#FFC55B" stop-opacity="0"/>
</radialGradient>
<radialGradient id="paint30_radial_2_1159" cx="0" cy="0" r="1" gradientUnits="userSpaceOnUse" gradientTransform="translate(16.8778 66.6903) rotate(2.01) scale(10.514 2.02961)">
<stop stop-color="white"/>
<stop offset="0.14" stop-color="#FFF4E1" stop-opacity="0.82"/>
<stop offset="0.38" stop-color="#FFE3B1" stop-opacity="0.53"/>
<stop offset="0.59" stop-color="#FFD68C" stop-opacity="0.3"/>
<stop offset="0.77" stop-color="#FFCD71" stop-opacity="0.14"/>
<stop offset="0.92" stop-color="#FFC761" stop-opacity="0.04"/>
<stop offset="1" stop-color="#FFC55B" stop-opacity="0"/>
</radialGradient>
<radialGradient id="paint31_radial_2_1159" cx="0" cy="0" r="1" gradientUnits="userSpaceOnUse" gradientTransform="translate(13.9081 65.0117) rotate(2.01) scale(10.023 1.06374)">
<stop stop-color="white"/>
<stop offset="0.04" stop-color="#FFFBF4" stop-opacity="0.94"/>
<stop offset="0.19" stop-color="#FFEDCC" stop-opacity="0.69"/>
<stop offset="0.35" stop-color="#FFE0A9" stop-opacity="0.48"/>
<stop offset="0.5" stop-color="#FFD68D" stop-opacity="0.31"/>
<stop offset="0.64" stop-color="#FFCF77" stop-opacity="0.17"/>
<stop offset="0.77" stop-color="#FFC967" stop-opacity="0.08"/>
<stop offset="0.9" stop-color="#FFC65E" stop-opacity="0.02"/>
<stop offset="1" stop-color="#FFC55B" stop-opacity="0"/>
</radialGradient>
<radialGradient id="paint32_radial_2_1159" cx="0" cy="0" r="1" gradientUnits="userSpaceOnUse" gradientTransform="translate(8.66532 70.4737) rotate(2.01) scale(4.97258 4.49103)">
<stop stop-color="white"/>
<stop offset="0.04" stop-color="#FFFBF4" stop-opacity="0.94"/>
<stop offset="0.19" stop-color="#FFEDCC" stop-opacity="0.69"/>
<stop offset="0.35" stop-color="#FFE0A9" stop-opacity="0.48"/>
<stop offset="0.5" stop-color="#FFD68D" stop-opacity="0.31"/>
<stop offset="0.64" stop-color="#FFCF77" stop-opacity="0.17"/>
<stop offset="0.77" stop-color="#FFC967" stop-opacity="0.08"/>
<stop offset="0.9" stop-color="#FFC65E" stop-opacity="0.02"/>
<stop offset="1" stop-color="#FFC55B" stop-opacity="0"/>
</radialGradient>
<radialGradient id="paint33_radial_2_1159" cx="0" cy="0" r="1" gradientUnits="userSpaceOnUse" gradientTransform="translate(9.77786 67.2744) rotate(92.05) scale(10.0597 1.06374)">
<stop stop-color="white"/>
<stop offset="0.06" stop-color="#FFF7E9" stop-opacity="0.87"/>
<stop offset="0.16" stop-color="#FFEBC8" stop-opacity="0.67"/>
<stop offset="0.26" stop-color="#FFE1AB" stop-opacity="0.49"/>
<stop offset="0.37" stop-color="#FFD892" stop-opacity="0.34"/>
<stop offset="0.48" stop-color="#FFD17E" stop-opacity="0.22"/>
<stop offset="0.59" stop-color="#FFCB6E" stop-opacity="0.12"/>
<stop offset="0.71" stop-color="#FFC863" stop-opacity="0.05"/>
<stop offset="0.84" stop-color="#FFC55D" stop-opacity="0.01"/>
<stop offset="1" stop-color="#FFC55B" stop-opacity="0"/>
</radialGradient>
<radialGradient id="paint34_radial_2_1159" cx="0" cy="0" r="1" gradientUnits="userSpaceOnUse" gradientTransform="translate(43.5564 49.1863) rotate(2.01) scale(5.24038 5.47329)">
<stop stop-color="white"/>
<stop offset="0.14" stop-color="#FFF4E1" stop-opacity="0.82"/>
<stop offset="0.38" stop-color="#FFE3B1" stop-opacity="0.53"/>
<stop offset="0.59" stop-color="#FFD68C" stop-opacity="0.3"/>
<stop offset="0.77" stop-color="#FFCD71" stop-opacity="0.14"/>
<stop offset="0.92" stop-color="#FFC761" stop-opacity="0.04"/>
<stop offset="1" stop-color="#FFC55B" stop-opacity="0"/>
</radialGradient>
<radialGradient id="paint35_radial_2_1159" cx="0" cy="0" r="1" gradientUnits="userSpaceOnUse" gradientTransform="translate(53.015 54.0152) rotate(92.05) scale(10.5639 2.02961)">
<stop stop-color="white"/>
<stop offset="0.14" stop-color="#FFF4E1" stop-opacity="0.82"/>
<stop offset="0.38" stop-color="#FFE3B1" stop-opacity="0.53"/>
<stop offset="0.59" stop-color="#FFD68C" stop-opacity="0.3"/>
<stop offset="0.77" stop-color="#FFCD71" stop-opacity="0.14"/>
<stop offset="0.92" stop-color="#FFC761" stop-opacity="0.04"/>
<stop offset="1" stop-color="#FFC55B" stop-opacity="0"/>
</radialGradient>
<radialGradient id="paint36_radial_2_1159" cx="0" cy="0" r="1" gradientUnits="userSpaceOnUse" gradientTransform="translate(49.3861 52.8722) rotate(2.01) scale(10.514 2.02961)">
<stop stop-color="white"/>
<stop offset="0.14" stop-color="#FFF4E1" stop-opacity="0.82"/>
<stop offset="0.38" stop-color="#FFE3B1" stop-opacity="0.53"/>
<stop offset="0.59" stop-color="#FFD68C" stop-opacity="0.3"/>
<stop offset="0.77" stop-color="#FFCD71" stop-opacity="0.14"/>
<stop offset="0.92" stop-color="#FFC761" stop-opacity="0.04"/>
<stop offset="1" stop-color="#FFC55B" stop-opacity="0"/>
</radialGradient>
<radialGradient id="paint37_radial_2_1159" cx="0" cy="0" r="1" gradientUnits="userSpaceOnUse" gradientTransform="translate(46.4317 51.2328) rotate(2.01) scale(10.023 1.06374)">
<stop stop-color="white"/>
<stop offset="0.04" stop-color="#FFFBF4" stop-opacity="0.94"/>
<stop offset="0.19" stop-color="#FFEDCC" stop-opacity="0.69"/>
<stop offset="0.35" stop-color="#FFE0A9" stop-opacity="0.48"/>
<stop offset="0.5" stop-color="#FFD68D" stop-opacity="0.31"/>
<stop offset="0.64" stop-color="#FFCF77" stop-opacity="0.17"/>
<stop offset="0.77" stop-color="#FFC967" stop-opacity="0.08"/>
<stop offset="0.9" stop-color="#FFC65E" stop-opacity="0.02"/>
<stop offset="1" stop-color="#FFC55B" stop-opacity="0"/>
</radialGradient>
<radialGradient id="paint38_radial_2_1159" cx="0" cy="0" r="1" gradientUnits="userSpaceOnUse" gradientTransform="translate(41.2032 56.6363) rotate(2.01) scale(4.97258 4.49102)">
<stop stop-color="white"/>
<stop offset="0.04" stop-color="#FFFBF4" stop-opacity="0.94"/>
<stop offset="0.19" stop-color="#FFEDCC" stop-opacity="0.69"/>
<stop offset="0.35" stop-color="#FFE0A9" stop-opacity="0.48"/>
<stop offset="0.5" stop-color="#FFD68D" stop-opacity="0.31"/>
<stop offset="0.64" stop-color="#FFCF77" stop-opacity="0.17"/>
<stop offset="0.77" stop-color="#FFC967" stop-opacity="0.08"/>
<stop offset="0.9" stop-color="#FFC65E" stop-opacity="0.02"/>
<stop offset="1" stop-color="#FFC55B" stop-opacity="0"/>
</radialGradient>
<radialGradient id="paint39_radial_2_1159" cx="0" cy="0" r="1" gradientUnits="userSpaceOnUse" gradientTransform="translate(42.2892 53.4726) rotate(92.05) scale(10.0597 1.06374)">
<stop stop-color="white"/>
<stop offset="0.06" stop-color="#FFF7E9" stop-opacity="0.87"/>
<stop offset="0.16" stop-color="#FFEBC8" stop-opacity="0.67"/>
<stop offset="0.26" stop-color="#FFE1AB" stop-opacity="0.49"/>
<stop offset="0.37" stop-color="#FFD892" stop-opacity="0.34"/>
<stop offset="0.48" stop-color="#FFD17E" stop-opacity="0.22"/>
<stop offset="0.59" stop-color="#FFCB6E" stop-opacity="0.12"/>
<stop offset="0.71" stop-color="#FFC863" stop-opacity="0.05"/>
<stop offset="0.84" stop-color="#FFC55D" stop-opacity="0.01"/>
<stop offset="1" stop-color="#FFC55B" stop-opacity="0"/>
</radialGradient>
</defs>
</svg>
