<svg width="313" height="54" viewBox="0 0 313 54" fill="none" xmlns="http://www.w3.org/2000/svg">
<path d="M286.7 0.877075V53.5693H312.375V0.877075H286.7ZM308.125 49.1974H290.945V43.1786C290.945 38.9534 293.103 36.412 296.739 36.412C300.375 36.412 302.5 38.958 302.5 43.1786V47.9725H308.12V49.1974H308.125ZM308.125 20.5759L303.785 22.5118L302.232 23.1953L301.411 23.5577L292.32 27.6039L302.232 31.9988V26.5396L303.293 26.0671V32.4713L308.125 34.6045V35.9257L290.945 28.2003V26.9754L308.125 19.2501V20.5759ZM308.125 13.2358H302.209L290.945 20.0024V18.6583L301.055 12.589L290.945 6.51972V5.24898L302.209 12.0156H308.125V13.2404V13.2358ZM296.744 37.6598C293.774 37.6598 292.081 39.5774 292.081 43.1786V47.9725H301.379V43.1786C301.379 39.5774 299.685 37.6598 296.744 37.6598ZM21.7966 1.25325H0.625122V4.6893H21.4916C36.6255 4.6893 46.3363 14.1029 46.3363 27.4067C46.3363 40.7105 36.6255 50.1332 21.4916 50.1332H4.51883V23.5073H0.625122V53.5693H21.7966C38.7647 53.5693 50.23 42.6602 50.23 27.4067C50.23 12.1532 38.7694 1.25325 21.7966 1.25325ZM63.7594 1.25325V53.5693H67.6532V1.25325H63.7594ZM114.509 35.2605C122.456 32.9392 127.044 27.1865 127.044 18.8877C127.044 7.82257 118.947 1.25325 105.488 1.25325H86.3007V4.6893H105.488C116.958 4.6893 123.07 9.84567 123.07 18.8877C123.07 27.9296 116.958 33.0952 105.488 33.0952H86.3007V53.5739H90.2038V36.4578H105.488C107.322 36.4578 109.001 36.311 110.686 36.0863L123.45 53.5739H127.884L114.504 35.2651L114.509 35.2605ZM214.948 50.4314C201.268 50.4314 190.943 40.5637 190.943 27.4021C190.943 14.2405 201.268 4.38194 214.948 4.38194C221.22 4.38194 226.793 6.17565 231.376 10.5888L233.825 8.12076C229.167 3.26717 222.365 0.877075 214.798 0.877075C198.89 0.877075 187.044 12.1578 187.044 27.4067C187.044 42.6556 198.89 53.9409 214.798 53.9409C222.365 53.9409 229.167 51.482 233.825 46.6146L231.376 44.1557C226.793 48.5643 221.22 50.436 214.948 50.436V50.4314ZM237.194 1.25325V4.6893H256.456V53.5693H260.349V4.6893H279.611V1.25325H237.194ZM177.113 4.6893H141.338V1.25325H177.113V4.6893ZM177.113 53.5693H141.338V50.1332H177.113V53.5693ZM177.113 29.127H141.338V25.6909H177.113V29.127Z" fill="url(#paint0_linear_2_1881)"/>
<defs>
<linearGradient id="paint0_linear_2_1881" x1="430.786" y1="9.36651" x2="327.309" y2="226.44" gradientUnits="userSpaceOnUse">
<stop stop-color="#B57E10"/>
<stop offset="0.1507" stop-color="#B57E10"/>
<stop offset="0.4638" stop-color="#E5C35C"/>
<stop offset="0.6129" stop-color="#F9DF7B"/>
<stop offset="0.7204" stop-color="#FFF3A6"/>
<stop offset="0.8387" stop-color="#F9DF7B"/>
<stop offset="1" stop-color="#B57E10"/>
</linearGradient>
</defs>
</svg>
