<svg width="36" height="31" viewBox="0 0 36 31" fill="none" xmlns="http://www.w3.org/2000/svg">
<path d="M23.9964 29.195V26.1314C23.9964 24.5064 23.3509 22.948 22.2018 21.7989C21.0528 20.6498 19.4943 20.0043 17.8693 20.0043H7.14675C5.52173 20.0043 3.96326 20.6498 2.8142 21.7989C1.66513 22.948 1.01959 24.5064 1.01959 26.1314V29.195M30.1236 9.28175V18.4725M34.719 13.8771H25.5282M18.6352 7.74996C18.6352 11.1339 15.892 13.8771 12.508 13.8771C9.12408 13.8771 6.38086 11.1339 6.38086 7.74996C6.38086 4.36603 9.12408 1.6228 12.508 1.6228C15.892 1.6228 18.6352 4.36603 18.6352 7.74996Z" stroke="black" stroke-width="2" stroke-linecap="round" stroke-linejoin="round"/>
</svg>
