<svg width="15" height="17" viewBox="0 0 15 17" fill="none" xmlns="http://www.w3.org/2000/svg">
<path d="M14.4186 3.18413C14.4186 4.4146 11.4262 5.41209 7.73477 5.41209C4.04337 5.41209 1.0509 4.4146 1.0509 3.18413M14.4186 3.18413C14.4186 1.95367 11.4262 0.956177 7.73477 0.956177C4.04337 0.956177 1.0509 1.95367 1.0509 3.18413M14.4186 3.18413V13.5813C14.4186 14.8141 11.448 15.8092 7.73477 15.8092C4.02151 15.8092 1.0509 14.8141 1.0509 13.5813V3.18413M14.4186 8.3827C14.4186 9.6155 11.448 10.6107 7.73477 10.6107C4.02151 10.6107 1.0509 9.6155 1.0509 8.3827" stroke="#959595" stroke-linecap="round" stroke-linejoin="round"/>
</svg>
