<svg width="15" height="12" viewBox="0 0 15 12" fill="none" xmlns="http://www.w3.org/2000/svg">
<path d="M4.04324 6.73116L0.998138 5.739C0.998138 5.739 0.634215 5.59135 0.751398 5.25654C0.775521 5.1875 0.824183 5.12875 0.969752 5.02779C1.64447 4.5575 13.4581 0.311345 13.4581 0.311345C13.4581 0.311345 13.7917 0.198945 13.9884 0.273705C14.0371 0.28877 14.0809 0.316493 14.1153 0.354036C14.1498 0.391579 14.1736 0.437596 14.1844 0.48738C14.2057 0.575311 14.2146 0.665777 14.2108 0.756163C14.2099 0.834355 14.2004 0.906828 14.1933 1.02048C14.1213 2.18139 11.9681 10.8457 11.9681 10.8457C11.9681 10.8457 11.8393 11.3527 11.3777 11.37C11.2643 11.3737 11.1513 11.3545 11.0455 11.3135C10.9396 11.2726 10.8431 11.2108 10.7617 11.1317C9.85593 10.3526 6.72535 8.24872 6.03359 7.78602C6.01798 7.77538 6.00484 7.76153 5.99505 7.74539C5.98526 7.72924 5.97904 7.71119 5.97682 7.69244C5.96715 7.64367 6.02017 7.58326 6.02017 7.58326C6.02017 7.58326 11.4713 2.73788 11.6164 2.22922C11.6276 2.18981 11.5852 2.17037 11.5282 2.18763C11.1662 2.32083 4.88983 6.28437 4.19713 6.7218C4.14727 6.73689 4.09456 6.74009 4.04324 6.73116Z" fill="url(#paint0_linear_30_5754)"/>
<defs>
<linearGradient id="paint0_linear_30_5754" x1="20.325" y1="23.2851" x2="-7.03077" y2="18.2289" gradientUnits="userSpaceOnUse">
<stop stop-color="#B57E10"/>
<stop offset="0.1507" stop-color="#B57E10"/>
<stop offset="0.4638" stop-color="#E5C35C"/>
<stop offset="0.6129" stop-color="#F9DF7B"/>
<stop offset="0.7204" stop-color="#FFF3A6"/>
<stop offset="0.8387" stop-color="#F9DF7B"/>
<stop offset="1" stop-color="#B57E10"/>
</linearGradient>
</defs>
</svg>
