<svg width="113" height="657" viewBox="0 0 113 657" fill="none" xmlns="http://www.w3.org/2000/svg">
<path d="M0.674168 54.4556L111.54 54.4556L111.54 0.4347L0.674166 0.434705L0.674168 54.4556ZM102.341 9.37732L102.341 45.5228L89.6776 45.5228C80.7879 45.5228 75.4405 40.9824 75.4405 33.3329C75.4405 25.6833 80.7975 21.212 89.6776 21.212L99.7642 21.212L99.7642 9.3872L102.341 9.3872L102.341 9.37732ZM42.1209 9.37732L46.1942 18.5075L47.6324 21.7746L48.3949 23.5019L56.9082 42.6308L66.1551 21.7746L54.6689 21.7746L53.6747 19.5439L67.1492 19.5439L71.6375 9.37732L74.4174 9.37732L58.163 45.5228L55.5858 45.5228L39.3314 9.37732L42.1209 9.37732ZM26.6773 9.37732L26.6773 21.8239L40.9144 45.5228L38.0863 45.5228L25.3164 24.2521L12.5464 45.5229L9.87277 45.5229L24.1098 21.8239L24.1098 9.37732L26.687 9.37732L26.6773 9.37732ZM78.0659 33.323C78.0659 39.571 82.1006 43.1342 89.6776 43.1342L99.7642 43.1342L99.7642 23.571L89.6776 23.571C82.1006 23.571 78.0659 27.1343 78.0659 33.323ZM1.46568 611.819L1.46568 656.365L8.69522 656.365L8.69522 612.461C8.69521 580.619 28.5016 560.187 56.4932 560.187C84.4847 560.187 104.31 580.619 104.31 612.461L104.31 648.172L48.2888 648.172L48.2888 656.364L111.54 656.364L111.54 611.819C111.54 576.118 88.5869 551.995 56.4932 551.995C24.3994 551.995 1.46568 576.108 1.46568 611.819ZM1.46567 523.528L111.54 523.528L111.54 515.336L1.46567 515.336L1.46567 523.528ZM73.0178 416.75C68.1338 400.029 56.0299 390.376 38.5689 390.376C15.2877 390.376 1.46567 407.412 1.46567 435.731L1.46567 476.101L8.69521 476.101L8.69521 435.731C8.69521 411.598 19.5443 398.736 38.5689 398.736C57.5935 398.736 68.462 411.598 68.462 435.731L68.462 476.101L111.55 476.101L111.55 467.889L75.5371 467.889L75.5371 435.731C75.5371 431.871 75.2282 428.338 74.7552 424.794L111.55 397.937L111.55 388.609L73.0275 416.76L73.0178 416.75ZM104.938 205.424C104.938 234.206 84.1758 255.931 56.4835 255.931C28.7912 255.931 8.0485 234.206 8.0485 205.424C8.0485 192.227 11.8225 180.501 21.108 170.858L15.9151 165.705C5.703 175.507 0.674174 189.819 0.674175 205.74C0.674176 239.21 24.4091 264.133 56.4932 264.133C88.5773 264.133 112.322 239.21 112.322 205.74C112.322 189.819 107.148 175.507 96.9072 165.705L91.7335 170.858C101.009 180.501 104.947 192.227 104.947 205.424L104.938 205.424ZM1.46566 158.618L8.6952 158.618L8.69519 118.09L111.54 118.09L111.54 109.898L8.69519 109.898L8.69519 69.3698L1.46565 69.3698L1.46566 158.618ZM8.6952 285.029L8.6952 360.301L1.46567 360.301L1.46566 285.029L8.6952 285.029ZM111.54 285.029L111.54 360.301L104.31 360.301L104.31 285.029L111.54 285.029ZM60.1128 285.029L60.1128 360.301L52.8832 360.301L52.8832 285.029L60.1128 285.029Z" fill="#0D0D0D"/>
</svg>
